<?xml version="1.0" encoding="utf-8"?>
<!-- Generator: Adobe Illustrator 25.1.0, SVG Export Plug-In . SVG Version: 6.00 Build 0)  -->
<svg version="1.1" xmlns="http://www.w3.org/2000/svg" xmlns:xlink="http://www.w3.org/1999/xlink" x="0px" y="0px"
	 viewBox="0 0 48 48" style="enable-background:new 0 0 48 48;" xml:space="preserve">
<style type="text/css">
	.st0{display:none;}
	.st1{display:inline;fill-rule:evenodd;clip-rule:evenodd;fill:#FFFFFF;}
	.st2{fill:#FFFFFF;}
	.st3{fill-rule:evenodd;clip-rule:evenodd;fill:#FFFFFF;}
</style>
<g id="Layer_2">
	<g class="st0">
		<path class="st1" d="M24.2,22.2c3.7,1,6.4,1.5,6.4,1.5c-1.6-1.6-3-3.2-4.2-4.7c2.1-3,3.8-5.1,3.8-5.1c-2.3,0.5-4.4,1.1-6.3,1.7
			C22,13,21,11.2,21,11.2c-0.5,2-0.8,3.9-0.9,5.8c-3,1.2-4.9,2.1-4.9,2.1c1.6,0.7,3.3,1.4,5,1.9c0.3,3.5,1,6,1,6
			C22.1,25.3,23.2,23.7,24.2,22.2L24.2,22.2z"/>
		<path class="st1" d="M40.9,21.2c-0.5,0.8-1.3,1.3-2.2,1.7c-0.1-2.5-0.5-4.7-0.5-4.7c-0.8,2.1-1.6,3.9-2.3,5.5
			c-2.7,0.3-5.3-0.1-5.3-0.1c1.4,1.7,2.6,2.8,3.5,3.5c-1.4,2.3-2.3,3.5-2.3,3.5c1.9-0.4,3.4-1.2,4.6-2c0.5,0.3,0.9,0.7,1.3,1.4
			c0,0,0.8-1.1,1-3.6C40.6,23.8,40.9,21.2,40.9,21.2L40.9,21.2z"/>
		<path class="st1" d="M40,14.3c-1.1-2.3-5.2-7.1-5.9-8c0.1,0.6,0,1.2-0.2,1.8c-2.9-1.4-5.5-1.6-5.5-1.6c1.7,1.1,3.1,2.4,4.4,3.8
			c-1.2,1.9-2.7,3.5-2.7,3.5c2-0.5,3.7-0.6,5-0.7c2,2.8,3.1,5.1,3.1,5.1c0-1.9-0.1-3.5-0.5-4.9C39.4,13.7,40,14.3,40,14.3L40,14.3z"
			/>
		<path class="st1" d="M28.5,6.5c-1.4-0.7-2.7-1.2-3.9-1.5c1.6-1.3,3-1.7,3-1.7c-3,0-9.3,1.3-10.9,1.3C17,5,17.4,5.5,17.7,6.2
			c-2.3,1.6-3.5,3.2-3.5,3.2c1.4-0.7,2.8-1.2,4.3-1.6c0.5,1.1,2.6,3.6,2.5,3.4c0.4-1.8,1-3.2,1.8-4.2C26,6.5,28.5,6.5,28.5,6.5z"/>
		<path class="st1" d="M11.1,12c0.9-0.8,1.9-1.7,3.2-2.7c0,0-1.2,0-2.4,0.3c0.8-2,1.7-3.1,1.7-3.1S8.3,10.3,7.4,17
			c0,0,0.4-1.2,1.9-3c0.6,1.3,1.3,2.2,1.3,2.2C10.6,14.6,10.8,13.2,11.1,12L11.1,12z"/>
		<path class="st1" d="M15.3,19c-1.8,0.1-3.2,0.2-4.3,0.4c-0.3-1.9-0.4-3.3-0.4-3.3c-0.9,1.4-1.5,2.7-1.8,3.9
			c-1.3,0.5-1.6,0.9-1.6,0.9c0.2,0.7,0.6,1.3,1.1,1.9C8.1,25.8,9,27.7,9,27.7c0.2-1,0.6-2,1.2-2.9c1.5,1.2,3.1,2,3.1,2
			c-0.7-1.3-1.3-2.7-1.6-4.1C13.3,20.5,15.3,19,15.3,19L15.3,19z"/>
		<path class="st1" d="M24.2,33.9c0,0-1.5-0.6-3.7-1.8c0.1-1.3,0.3-3,0.7-5.1c0,0-1.7,1.7-4,3c-1.3-0.9-2.7-2-4-3.2
			c0,0,0.6,2,1.9,4.2c-1.2,0.4-2.4,0.6-3.5,0.4c0,0,1.3,1.6,5.4,2.3c1.1,1.3,2.5,2.4,4.1,2.8c0,0-0.5-0.5-0.6-2.5
			C21.6,34.1,22.9,34,24.2,33.9z"/>
		<path class="st1" d="M31.6,33.7c0.3-1.6,0.1-3.1,0.1-3.1c-1,1.5-2,2.6-3,3.5c-2.5,0.1-4.5-0.2-4.5-0.2s1.1,1.1,2.4,1.8
			c-1.7,1.1-2.9,1.2-2.9,1.2c7.5,0.2,12-4.7,12-4.7C34.5,32.9,33,33.4,31.6,33.7L31.6,33.7z"/>
	</g>
</g>
<g id="Layer_3">
	<g id="SUPER">
		<g>
			<path class="st2" d="M9.6,41.7c-0.4,0.2-0.7,0.3-1.1,0.5c-0.7-0.2-1.4-0.5-2.1-0.7c-0.1,0.4-0.3,0.7-0.4,1.1
				c0.1,0.1,0.3,0.1,0.4,0.2c-0.2,0.5-0.3,1-0.5,1.5c-0.9-0.3-1.8-0.7-2.6-1c0.2-0.5,0.4-1,0.6-1.4c0.1,0.1,0.3,0.1,0.4,0.2
				c0.5-1.2,1-2.4,1.5-3.6c-0.1-0.1-0.3-0.1-0.4-0.2c0.2-0.5,0.4-1,0.6-1.4c1.3,0.5,2.6,1,3.9,1.4c0.2,0.3,0.4,0.7,0.6,1
				C10.1,40,9.8,40.8,9.6,41.7z M8.5,39.3c-0.4-0.1-0.8-0.3-1.2-0.4C7.2,39.3,7,39.6,6.9,40c0.4,0.1,0.8,0.3,1.2,0.4
				C8.3,40.1,8.4,39.7,8.5,39.3z"/>
			<path class="st2" d="M15,46.6c-0.9-0.1-1.7-0.3-2.5-0.5c0.1-0.5,0.2-1,0.3-1.5c0.1,0,0.2,0.1,0.4,0.1c0.1-0.4,0.2-0.8,0.2-1.2
				c-0.4-0.1-0.9-0.2-1.3-0.3c-0.1,0.4-0.2,0.8-0.3,1.1c0.1,0,0.3,0.1,0.4,0.1c-0.1,0.5-0.2,1-0.3,1.5c-0.9-0.2-1.8-0.4-2.7-0.7
				c0.1-0.5,0.3-1,0.4-1.5c0.1,0,0.3,0.1,0.4,0.1c0.3-1.3,0.7-2.5,1-3.8c-0.1,0-0.3-0.1-0.4-0.1c0.1-0.5,0.3-1,0.4-1.5
				c1.3,0.4,2.7,0.7,4,1c0.2,0.3,0.4,0.6,0.7,0.9c-0.1,0.8-0.3,1.5-0.4,2.3c-0.2,0.1-0.3,0.2-0.5,0.3c0.1,0.2,0.2,0.3,0.4,0.5
				c-0.1,0.5-0.2,1-0.3,1.5c0.1,0,0.2,0,0.3,0.1C15.1,45.5,15,46,15,46.6z M13.9,40.8c-0.4-0.1-0.8-0.2-1.3-0.3
				c-0.1,0.4-0.2,0.8-0.3,1.1c0.4,0.1,0.9,0.2,1.3,0.3C13.8,41.6,13.8,41.2,13.9,40.8z"/>
			<path class="st2" d="M15.5,46.6c0.1-0.5,0.2-1,0.2-1.5c0.2,0,0.3,0,0.5,0.1c0.2-1.3,0.4-2.6,0.6-3.9c-0.1,0-0.3,0-0.4-0.1
				c0.1-0.5,0.2-1,0.2-1.5c1.6,0.3,3.3,0.4,4.9,0.5c0,0.8-0.1,1.6-0.1,2.3c-0.6,0-1.1-0.1-1.7-0.1c0-0.3,0-0.5,0.1-0.8
				c-0.4,0-0.9-0.1-1.3-0.1c0,0.4-0.1,0.8-0.1,1.2c0.6,0.1,1.1,0.1,1.7,0.2c0,0.5-0.1,1-0.1,1.6c-0.6,0-1.1-0.1-1.7-0.2
				c0,0.4-0.1,0.8-0.1,1.2c0.5,0.1,0.9,0.1,1.4,0.1c0-0.3,0-0.5,0.1-0.8c0.6,0.1,1.2,0.1,1.8,0.1c0,0.8-0.1,1.6-0.1,2.3
				C19.2,47.1,17.4,46.9,15.5,46.6z"/>
			<path class="st2" d="M29,47.1c-0.9,0.1-1.9,0.1-2.8,0.2c0-0.5,0-1-0.1-1.6c0.1,0,0.3,0,0.4,0c0-0.8-0.1-1.5-0.1-2.3
				c-0.4,0.7-0.8,1.5-1.2,2.2c-0.4-0.7-0.9-1.4-1.3-2.1c0,0.8,0,1.5,0,2.3c0.1,0,0.3,0,0.4,0c0,0.5,0,1,0,1.6c-0.9,0-1.9,0-2.8,0
				c0-0.5,0-1,0.1-1.6c0.1,0,0.3,0,0.4,0c0-1.3,0.1-2.6,0.1-3.9c-0.1,0-0.3,0-0.4,0c0-0.5,0-1,0.1-1.6c0.6,0,1.3,0,1.9,0
				c0.4,0.7,0.8,1.4,1.3,2.1c0.4-0.7,0.8-1.5,1.2-2.2c0.6,0,1.3-0.1,1.9-0.1c0,0.5,0.1,1,0.1,1.6c-0.1,0-0.3,0-0.4,0
				c0.1,1.3,0.2,2.6,0.3,3.9c0.1,0,0.3,0,0.4,0C28.9,46,29,46.6,29,47.1z"/>
			<path class="st2" d="M32.4,46.7c-0.9,0.1-1.8,0.3-2.8,0.4c-0.1-0.5-0.1-1-0.2-1.6c0.1,0,0.3,0,0.4,0c-0.1-1.3-0.3-2.6-0.4-3.9
				c-0.1,0-0.3,0-0.4,0c-0.1-0.5-0.1-1-0.2-1.6c0.8-0.1,1.6-0.2,2.4-0.3c0.1,0.5,0.2,1,0.2,1.5c-0.1,0-0.3,0-0.4,0.1
				c0.2,1.3,0.4,2.6,0.6,3.9c0.1,0,0.3,0,0.4-0.1C32.2,45.6,32.3,46.2,32.4,46.7z"/>
			<path class="st2" d="M33,46.6c-0.1-0.5-0.2-1-0.3-1.5c0.2,0,0.3-0.1,0.5-0.1c-0.2-1.3-0.5-2.6-0.7-3.8c-0.1,0-0.3,0-0.4,0.1
				c-0.1-0.5-0.2-1-0.3-1.5c1.6-0.3,3.2-0.6,4.8-1.1c0.2,0.8,0.4,1.5,0.6,2.3c-0.6,0.2-1.1,0.3-1.7,0.4c-0.1-0.3-0.1-0.5-0.2-0.8
				c-0.4,0.1-0.8,0.2-1.3,0.3c0.1,0.4,0.2,0.8,0.2,1.1c0.5-0.1,1.1-0.2,1.6-0.4c0.1,0.5,0.3,1,0.4,1.5c-0.6,0.1-1.1,0.3-1.7,0.4
				c0.1,0.4,0.2,0.8,0.2,1.1c0.5-0.1,0.9-0.2,1.4-0.3c-0.1-0.3-0.1-0.5-0.2-0.8c0.6-0.1,1.2-0.3,1.7-0.5c0.2,0.8,0.4,1.5,0.6,2.3
				C36.7,45.9,34.8,46.3,33,46.6z"/>
			<path class="st2" d="M44.8,43.2c-0.8,0.3-1.6,0.7-2.4,0.9c-0.2-0.5-0.4-1-0.5-1.5c0.1,0,0.2-0.1,0.3-0.1
				c-0.1-0.4-0.3-0.7-0.4-1.1c-0.4,0.2-0.9,0.3-1.3,0.5c0.1,0.4,0.3,0.7,0.4,1.1c0.1,0,0.3-0.1,0.4-0.1c0.2,0.5,0.3,1,0.5,1.5
				c-0.9,0.3-1.8,0.6-2.7,0.9c-0.1-0.5-0.3-1-0.4-1.5c0.1,0,0.3-0.1,0.4-0.1c-0.4-1.2-0.7-2.5-1.1-3.8c-0.1,0-0.3,0.1-0.4,0.1
				c-0.1-0.5-0.3-1-0.4-1.5c1.3-0.4,2.6-0.8,3.9-1.3c0.4,0.1,0.7,0.3,1.1,0.4c0.3,0.7,0.6,1.4,0.9,2.2c-0.1,0.2-0.2,0.3-0.3,0.5
				c0.2,0.1,0.4,0.1,0.6,0.2c0.2,0.5,0.4,1,0.6,1.4c0.1,0,0.2-0.1,0.3-0.1C44.4,42.2,44.6,42.7,44.8,43.2z M40.8,38.9
				c-0.4,0.2-0.8,0.3-1.2,0.4c0.1,0.4,0.3,0.7,0.4,1.1c0.4-0.1,0.8-0.3,1.3-0.4C41.1,39.6,41,39.2,40.8,38.9z"/>
		</g>
	</g>
	<g>
		<path id="path4138_1_" class="st3" d="M17.5,8c4.3-2.4,8.7-2.7,12.7-1.6c0.2-1.4,0.3-2.6,1-4.2c-1,0.7-1.7,1.6-2.4,2.5l-0.3-3.9
			l-3.2,3.6l-2.2-3.6l-1.4,4.1l-4-2.8L18.4,6c-0.9-0.8-1.9-1.5-2.9-1.9C16.3,5.1,17,6.5,17.5,8L17.5,8z"/>
		<path id="path4142_1_" class="st3" d="M33.6,9.7c-1.1-0.9-2.3-1.8-4.8-2.4c0.2,0.5,0.4,1.1,0.4,1.8c-0.6-0.7-1.4-1.5-2.4-2
			c-3.2-0.4-6.4,0.4-8.9,1.7c1.1,0.1,1.9,1,2.2,1.9c-3-2.1-4.8,0.9-3,4c-1.9-0.9-2-3.1-1.4-4.5c-1.4,1.1-3.6,3.2-4.9,6l1.7,0.2
			c-2.1,2.5-3.2,6-3.4,8.1l2.8-0.9c-0.9,3.2-0.2,8.3,1,10.1c1.8-1.4,3.2-3.1,4.6-5.3c0.9,2.9,0.8,6,0,9.1c4.1,2.3,9.3,1.4,12.6-1.1
			c0.1,0.6,0.2,0.9,0.5,2.2c4.1-2.8,5.5-6.3,5.9-9.6l1.3,1.5c1.8-5.7,0.7-10.4-2.4-14.9l-0.1,1.1c-0.4-0.5-1-1-1.2-1.4
			c0-0.1,0-0.1-0.1-0.1c0.1-0.1,0.4-0.2,0.5-0.4c0-0.3-0.3-1-0.6-1.1c-0.6,0.1-1.1,0.6-1.1,0.8c-0.3-0.3-0.6-0.6-1.5-0.9
			c0.4,0.4,0.8,1,1.1,1.6c0.6,0.4,1.6,1.2,2.3,2l-0.1,0.1c-0.8-0.6-2.9-0.6-4.1,0c-0.6-0.7-1.2-1.4-2.2-2.3
			c-0.2-0.4-0.2-1.1,0.5-1.7c-0.8,0.1-1.1,0.4-1.5,0.7c-0.6-0.4-1.3-0.9-2.5-1.2c-0.9,0.2-2,0.8-2.5,1.3c1.1,0.6,1.4,0.8,2.1,0.8
			c1,0.1,1.8-0.2,2.4,0.2c0.8,0.7,2.2,1.9,2.4,2.5c-1.2-0.7-3.1-0.3-5.1-0.4c-1.9-0.2-3-1.7-3-2.8l-1.4-0.2c0.8-1.1,1.8-1.5,2.5-1.8
			l-0.8-0.6c1.2-1,3.1-1.9,5-2c1.3,0.7,2.5,1.4,3.3,2c0.4-0.6,0.4-1.2,0.4-1.7c1.5,0.7,3.2,1.9,4.5,3.2
			C34.2,11.9,33.8,10.9,33.6,9.7L33.6,9.7z M27.7,23.9c-0.6-1.1-1.2-2.4-1.8-3.4c1.3-0.9,2.5-1.9,4.6-2.4c0.4,0.4,1.1,0.8,2,1.1
			l0,2.2C31.2,22.3,29.9,23.7,27.7,23.9L27.7,23.9z M32.1,23.5l1.6,0c0.3,0.3,0.8,1.1,0.9,1.8c-0.1,1-0.9,2.7-2.2,3.4
			c0-0.8-0.1-1.9-0.2-2.4c-0.7,0.8-1.9,1.2-2.6,1.3c-0.3-0.7-0.7-1.5-1.1-2.1C29.6,25.2,31,24.4,32.1,23.5L32.1,23.5z M35.2,18.1
			c1.1,2.2,0.8,4.4,0.1,5.5c-0.4-0.8-1-1.6-1.6-2.2l0-2.2C34.3,18.9,34.8,18.5,35.2,18.1L35.2,18.1z"/>
	</g>
</g>
</svg>
