<?xml version="1.0" encoding="utf-8"?>
<!-- Generator: Adobe Illustrator 25.1.0, SVG Export Plug-In . SVG Version: 6.00 Build 0)  -->
<svg version="1.1" xmlns="http://www.w3.org/2000/svg" xmlns:xlink="http://www.w3.org/1999/xlink" x="0px" y="0px"
	 viewBox="0 0 48 48" style="enable-background:new 0 0 48 48;" xml:space="preserve">
<style type="text/css">
	.st0{fill-rule:evenodd;clip-rule:evenodd;fill:#FFFFFF;}
	.st1{fill:#FFFFFF;}
</style>
<g id="Layer_1">
</g>
<g id="Layer_2">
	<g>
		<g>
			<path class="st0" d="M24.2,22.2c3.7,1,6.4,1.5,6.4,1.5c-1.6-1.6-3-3.2-4.2-4.7c2.1-3,3.8-5.1,3.8-5.1c-2.3,0.5-4.4,1.1-6.3,1.7
				C22,13,21,11.2,21,11.2c-0.5,2-0.8,3.9-0.9,5.8c-3,1.2-4.9,2.1-4.9,2.1c1.6,0.7,3.3,1.4,5,1.9c0.3,3.5,1,6,1,6
				C22.1,25.3,23.2,23.7,24.2,22.2L24.2,22.2z"/>
			<path class="st0" d="M40.9,21.2c-0.5,0.8-1.3,1.3-2.2,1.7c-0.1-2.5-0.5-4.7-0.5-4.7c-0.8,2.1-1.6,3.9-2.3,5.5
				c-2.7,0.3-5.3-0.1-5.3-0.1c1.4,1.7,2.6,2.8,3.5,3.5c-1.4,2.3-2.3,3.5-2.3,3.5c1.9-0.4,3.4-1.2,4.6-2c0.5,0.3,0.9,0.7,1.3,1.4
				c0,0,0.8-1.1,1-3.6C40.6,23.8,40.9,21.2,40.9,21.2L40.9,21.2z"/>
			<path class="st0" d="M40,14.3c-1.1-2.3-5.2-7.1-5.9-8c0.1,0.6,0,1.2-0.2,1.8c-2.9-1.4-5.5-1.6-5.5-1.6c1.7,1.1,3.1,2.4,4.4,3.8
				c-1.2,1.9-2.7,3.5-2.7,3.5c2-0.5,3.7-0.6,5-0.7c2,2.8,3.1,5.1,3.1,5.1c0-1.9-0.1-3.5-0.5-4.9C39.4,13.7,40,14.3,40,14.3L40,14.3z
				"/>
			<path class="st0" d="M28.5,6.5c-1.4-0.7-2.7-1.2-3.9-1.5c1.6-1.3,3-1.7,3-1.7c-3,0-9.3,1.3-10.9,1.3C17,5,17.4,5.5,17.7,6.2
				c-2.3,1.6-3.5,3.2-3.5,3.2c1.4-0.7,2.8-1.2,4.3-1.6c0.5,1.1,2.6,3.6,2.5,3.4c0.4-1.8,1-3.2,1.8-4.2C26,6.5,28.5,6.5,28.5,6.5z"/>
			<path class="st0" d="M11.1,12c0.9-0.8,1.9-1.7,3.2-2.7c0,0-1.2,0-2.4,0.3c0.8-2,1.7-3.1,1.7-3.1S8.3,10.3,7.4,17
				c0,0,0.4-1.2,1.9-3c0.6,1.3,1.3,2.2,1.3,2.2C10.6,14.6,10.8,13.2,11.1,12L11.1,12z"/>
			<path class="st0" d="M15.3,19c-1.8,0.1-3.2,0.2-4.3,0.4c-0.3-1.9-0.4-3.3-0.4-3.3c-0.9,1.4-1.5,2.7-1.8,3.9
				c-1.3,0.5-1.6,0.9-1.6,0.9c0.2,0.7,0.6,1.3,1.1,1.9C8.1,25.8,9,27.7,9,27.7c0.2-1,0.6-2,1.2-2.9c1.5,1.2,3.1,2,3.1,2
				c-0.7-1.3-1.3-2.7-1.6-4.1C13.3,20.5,15.3,19,15.3,19L15.3,19z"/>
			<path class="st0" d="M24.2,33.9c0,0-1.5-0.6-3.7-1.8c0.1-1.3,0.3-3,0.7-5.1c0,0-1.7,1.7-4,3c-1.3-0.9-2.7-2-4-3.2
				c0,0,0.6,2,1.9,4.2c-1.2,0.4-2.4,0.6-3.5,0.4c0,0,1.3,1.6,5.4,2.3c1.1,1.3,2.5,2.4,4.1,2.8c0,0-0.5-0.5-0.6-2.5
				C21.6,34.1,22.9,34,24.2,33.9z"/>
			<path class="st0" d="M31.6,33.7c0.3-1.6,0.1-3.1,0.1-3.1c-1,1.5-2,2.6-3,3.5c-2.5,0.1-4.5-0.2-4.5-0.2s1.1,1.1,2.4,1.8
				c-1.7,1.1-2.9,1.2-2.9,1.2c7.5,0.2,12-4.7,12-4.7C34.5,32.9,33,33.4,31.6,33.7L31.6,33.7z"/>
		</g>
	</g>
	<g>
		<g>
			<path class="st1" d="M12.5,44.7c-1.2-0.3-2.4-0.8-3.6-1.2c-0.2-0.4-0.4-0.7-0.6-1.1c0.2-0.5,0.4-1,0.6-1.4
				c0.6,0.2,1.2,0.5,1.7,0.7c-0.1,0.2-0.2,0.5-0.3,0.7c0.6,0.2,1.1,0.4,1.7,0.6c0.1-0.4,0.2-0.7,0.3-1.1c-0.8-0.3-1.7-0.6-2.5-0.9
				c-0.2-0.4-0.4-0.7-0.6-1.1c0.3-0.8,0.7-1.7,1-2.5c0.4-0.1,0.7-0.3,1.1-0.4c1,0.4,2,0.7,3,1c0.2,0.3,0.4,0.7,0.6,1
				c-0.1,0.5-0.3,1-0.4,1.5c-0.6-0.1-1.1-0.3-1.7-0.5c0.1-0.2,0.2-0.5,0.2-0.7c-0.5-0.2-1-0.3-1.5-0.5c-0.1,0.4-0.3,0.7-0.4,1.1
				c0.8,0.3,1.6,0.5,2.4,0.8c0.2,0.3,0.4,0.7,0.7,1c-0.2,0.9-0.5,1.8-0.7,2.6C13.3,44.4,12.9,44.6,12.5,44.7z"/>
			<path class="st1" d="M21,40.7c-0.1,0-0.3,0-0.4,0c-0.1,1.6-0.3,3.1-0.4,4.7c-0.3,0.2-0.7,0.5-1,0.7c-1.2-0.1-2.4-0.3-3.6-0.6
				c-0.3-0.3-0.5-0.6-0.8-1c0.4-1.5,0.7-3,1.1-4.6c-0.1,0-0.3-0.1-0.4-0.1c0.1-0.5,0.2-1,0.4-1.5c0.8,0.2,1.6,0.4,2.4,0.5
				c-0.1,0.5-0.2,1-0.3,1.5c-0.1,0-0.3,0-0.4-0.1c-0.2,1.3-0.5,2.6-0.7,3.8c0.5,0.1,1.1,0.2,1.6,0.3c0.2-1.3,0.4-2.6,0.5-3.9
				c-0.1,0-0.3,0-0.4-0.1c0.1-0.5,0.2-1,0.2-1.5c0.8,0.1,1.6,0.2,2.4,0.3C21.1,39.7,21.1,40.2,21,40.7z"/>
			<path class="st1" d="M26.7,42.7c-0.3,0.3-0.6,0.6-0.9,0.8c-0.8,0-1.5,0.1-2.3,0c0,0.4,0,0.8,0,1.2c0.2,0,0.3,0,0.5,0
				c0,0.5,0,1,0,1.6c-1,0-1.9,0-2.9-0.1c0-0.5,0.1-1,0.1-1.6c0.2,0,0.3,0,0.5,0c0.1-1.3,0.1-2.6,0.2-3.9c-0.1,0-0.3,0-0.4,0
				c0-0.5,0.1-1,0.1-1.6c1.4,0.1,2.7,0.1,4.1,0c0.3,0.2,0.6,0.5,0.9,0.7C26.6,40.9,26.7,41.8,26.7,42.7z M24.9,40.8
				c-0.4,0-0.9,0-1.3,0c0,0.4,0,0.8,0,1.2c0.4,0,0.9,0,1.3,0C24.9,41.6,24.9,41.2,24.9,40.8z"/>
			<path class="st1" d="M27.6,46.2c0-0.5-0.1-1-0.1-1.6c0.2,0,0.3,0,0.5,0c-0.1-1.3-0.3-2.6-0.4-3.9c-0.1,0-0.3,0-0.4,0
				c0-0.5-0.1-1-0.1-1.6c1.6-0.1,3.3-0.4,4.9-0.8c0.2,0.8,0.4,1.5,0.5,2.3c-0.6,0.1-1.1,0.2-1.7,0.4c0-0.3-0.1-0.5-0.1-0.8
				c-0.4,0.1-0.9,0.1-1.3,0.2c0.1,0.4,0.1,0.8,0.2,1.2c0.6-0.1,1.1-0.2,1.7-0.3c0.1,0.5,0.2,1,0.3,1.5c-0.6,0.1-1.2,0.2-1.7,0.3
				c0.1,0.4,0.1,0.8,0.2,1.2c0.5-0.1,1-0.1,1.4-0.2c0-0.3-0.1-0.5-0.1-0.8c0.6-0.1,1.2-0.2,1.8-0.4c0.2,0.8,0.4,1.5,0.5,2.3
				C31.5,45.7,29.5,46,27.6,46.2z"/>
			<path class="st1" d="M40,43.1c-0.8,0.4-1.7,0.7-2.6,1c-0.2-0.5-0.3-1-0.5-1.5c0.1,0,0.2-0.1,0.4-0.1c-0.1-0.4-0.3-0.7-0.4-1.1
				c-0.5,0.2-0.9,0.3-1.4,0.4c0.1,0.4,0.2,0.8,0.3,1.1c0.1,0,0.3-0.1,0.4-0.1c0.2,0.5,0.3,1,0.5,1.5c-0.9,0.3-1.9,0.6-2.8,0.8
				c-0.1-0.5-0.2-1-0.4-1.5c0.2,0,0.3-0.1,0.5-0.1c-0.3-1.3-0.7-2.5-1-3.8c-0.1,0-0.3,0.1-0.4,0.1c-0.1-0.5-0.2-1-0.4-1.5
				c1.3-0.3,2.7-0.7,4-1.2c0.3,0.1,0.7,0.3,1.1,0.4c0.3,0.7,0.6,1.4,0.9,2.2c-0.1,0.2-0.2,0.3-0.3,0.5c0.2,0.1,0.4,0.1,0.6,0.2
				c0.2,0.5,0.4,1,0.6,1.5c0.1,0,0.2-0.1,0.3-0.1C39.6,42.2,39.8,42.7,40,43.1z M36,38.8c-0.4,0.1-0.8,0.3-1.3,0.4
				c0.1,0.4,0.2,0.8,0.3,1.1c0.4-0.1,0.9-0.3,1.3-0.4C36.3,39.6,36.2,39.2,36,38.8z"/>
		</g>
	</g>
</g>
</svg>
