<?xml version="1.0" encoding="utf-8"?>
<!-- Generator: Adobe Illustrator 25.1.0, SVG Export Plug-In . SVG Version: 6.00 Build 0)  -->
<svg version="1.1" id="Layer_1" xmlns="http://www.w3.org/2000/svg" xmlns:xlink="http://www.w3.org/1999/xlink" x="0px" y="0px"
	 viewBox="0 0 283.46 283.46" style="enable-background:new 0 0 283.46 283.46;" xml:space="preserve">
<style type="text/css">
	.st0{fill:#FFFFFF;}
	.st1{fill:#111111;}
	.st2{fill:#C02026;}
	.st3{fill:#E6E6E5;}
	.st4{fill:#FDB71E;}
	.st5{fill:#F7F8F8;}
</style>
<path class="st0" d="M213.64,39.23C194.21,19.8,168.38,9.11,140.91,9.11c-27.47,0-53.3,10.7-72.73,30.12
	c-19.43,19.43-30.12,45.25-30.12,72.73c0,27.47,10.7,53.3,30.12,72.73c19.43,19.43,45.25,30.12,72.73,30.12
	c27.47,0,53.3-10.7,72.73-30.12c19.43-19.42,30.12-45.25,30.12-72.73C243.76,84.48,233.06,58.65,213.64,39.23z"/>
<g>
	<path class="st1" d="M228.78,54.68c-23.25-23.25-54.17-36.06-87.05-36.06c-32.88,0-63.8,12.81-87.05,36.06
		c-23.25,23.25-36.06,54.17-36.06,87.05s12.81,63.8,36.06,87.05c23.25,23.25,54.17,36.06,87.05,36.06c32.88,0,63.8-12.8,87.05-36.06
		c23.25-23.25,36.06-54.17,36.06-87.05C264.84,108.84,252.04,77.93,228.78,54.68z"/>
	<path class="st0" d="M226.7,56.76c-22.7-22.7-52.87-35.2-84.97-35.2c-32.1,0-62.27,12.5-84.97,35.2
		c-22.7,22.7-35.2,52.87-35.2,84.97c0,32.1,12.5,62.27,35.2,84.97c22.7,22.69,52.87,35.19,84.97,35.19
		c32.1,0,62.27-12.5,84.97-35.19c22.7-22.7,35.19-52.87,35.19-84.97C261.89,109.63,249.39,79.46,226.7,56.76z"/>
	<path class="st2" d="M224.62,58.85c-22.14-22.14-51.58-34.33-82.88-34.33c-31.31,0-60.74,12.19-82.88,34.33
		c-22.14,22.14-34.33,51.57-34.33,82.88c0,31.31,12.19,60.75,34.33,82.88c22.14,22.14,51.57,34.33,82.88,34.33
		c31.31,0,60.75-12.19,82.88-34.33c22.14-22.14,34.33-51.57,34.33-82.88C258.95,110.42,246.75,80.98,224.62,58.85z"/>
	<path class="st0" d="M197.98,85.48c-15.03-15.02-35-23.3-56.25-23.3c-21.25,0-41.22,8.27-56.25,23.3
		c-15.02,15.02-23.3,35-23.3,56.25c0,21.25,8.27,41.22,23.3,56.25c15.03,15.02,35,23.3,56.25,23.3c21.25,0,41.22-8.28,56.25-23.3
		c15.02-15.02,23.3-35,23.3-56.25C221.28,120.48,213,100.51,197.98,85.48z"/>
	<path class="st1" d="M195.89,87.57c-14.47-14.47-33.7-22.44-54.16-22.44c-20.46,0-39.7,7.97-54.16,22.44
		c-14.47,14.47-22.44,33.7-22.44,54.16c0,20.46,7.97,39.7,22.44,54.16c14.47,14.47,33.7,22.44,54.16,22.44
		c20.46,0,39.7-7.97,54.16-22.44c14.47-14.47,22.43-33.7,22.43-54.16C218.33,121.27,210.36,102.03,195.89,87.57z M141.73,215.38
		c-40.68,0-73.65-32.97-73.65-73.65c0-40.68,32.97-73.65,73.65-73.65c40.68,0,73.65,32.97,73.65,73.65
		C215.38,182.41,182.41,215.38,141.73,215.38z"/>
	<g>
		<g>
			<path class="st3" d="M151.94,212.95c0.49-0.07,0.98-0.15,1.47-0.22V70.74c-0.49-0.08-0.98-0.15-1.47-0.22V212.95z"/>
		</g>
		<g>
			<path class="st3" d="M195.72,189.28c0.5-0.56,0.99-1.14,1.47-1.72V95.9c-0.48-0.58-0.98-1.15-1.47-1.72V189.28z"/>
		</g>
		<g>
			<path class="st3" d="M173.83,206.13c0.5-0.25,0.99-0.5,1.47-0.76V78.09c-0.49-0.26-0.98-0.51-1.47-0.76V206.13z"/>
		</g>
		<g>
			<path class="st3" d="M130.05,212.72c0.49,0.08,0.98,0.16,1.47,0.22V70.51c-0.49,0.07-0.98,0.14-1.47,0.22V212.72z"/>
		</g>
		<g>
			<path class="st3" d="M108.16,205.37c0.49,0.26,0.98,0.51,1.47,0.76V77.33c-0.49,0.25-0.99,0.5-1.47,0.76V205.37z"/>
		</g>
		<g>
			<path class="st3" d="M86.27,187.56c0.48,0.58,0.98,1.15,1.47,1.72v-95.1c-0.5,0.57-0.99,1.14-1.47,1.72V187.56z"/>
		</g>
	</g>
	<path class="st0" d="M225.17,104.49c-0.48-1.16-1.39-2.06-2.55-2.54c-0.11-0.05-0.23-0.09-0.35-0.12l-1.65-0.45l-12.94-3.55
		c-0.15-0.11-1.16-0.71-0.87-0.29c0.02,0.02,0.03,0.04,0.04,0.06l-1.45-0.4l0.83,1.01l-37.04,15.19l11.13-12.11
		c0.04-0.04,0.08-0.09,0.12-0.13l7.91-9.71c0.32-0.39,0.53-0.85,0.62-1.35l0.57-3.19c0.19-1.05-0.25-0.62-1.08-1.29l-2.42-1.1
		c-0.53-0.44-0.88,1.1-1.55,1.1c-0.27,0,0.66-2.91,0.4-2.84c-0.93,0.26-1.67,0.96-1.98,1.87l-0.79,2.29l-21.44,19.87
		c-0.26-0.45-0.64-0.83-1.1-1.09l-1.38-0.78c0.04-2.24-0.45-5.61-3.33-7.57c-0.93-0.63-2.56-1.24-3.61-1.59
		c-0.02-0.02-0.04-0.05-0.06-0.07l4.94-7.12c8.63-4.44,9.35-6.66,9.59-7.4c0.43-1.33-0.13-2.77-1.34-3.46
		c-0.53-0.3-1.17-0.46-1.91-0.46c-2.39,0-6.06,1.65-11.24,5.03c-0.31,0.21-0.59,0.47-0.8,0.78l-5.56,7.96
		c-0.68-0.15-1.48-0.26-2.34-0.26c-0.87,0-1.66,0.11-2.34,0.26l-5.56-7.96c-0.21-0.31-0.49-0.57-0.8-0.78
		c-5.18-3.39-8.85-5.03-11.24-5.03c-0.74,0-1.38,0.15-1.91,0.46c-1.21,0.69-1.77,2.14-1.34,3.46c0.24,0.74,0.96,2.96,9.59,7.4
		l4.94,7.12c-0.02,0.02-0.04,0.05-0.06,0.07c-1.05,0.35-2.67,0.96-3.61,1.59c-2.88,1.95-3.37,5.32-3.33,7.57l-1.38,0.78
		c-0.57,0.32-1.01,0.83-1.26,1.43l-21.8-20.21l-0.79-2.29c-0.31-0.91-1.06-1.61-1.98-1.87c-0.26-0.07-0.53-0.11-0.8-0.11
		c-0.67,0-0.86,0.6-1.39,1.03l-0.57,0.98c-0.82,0.68-2.07,1.18-1.88,2.23l0.57,3.19c0.09,0.49,0.3,0.96,0.62,1.35l7.91,9.71
		c0.04,0.05,0.07,0.09,0.11,0.13l11.13,12.11l-37.4-15.33c-0.14-0.06-0.27-0.1-0.41-0.13c0.16-0.22,0.28-0.38,0.28-0.38l-1.08,0.3
		c-0.47,0.02-0.92,0.14-1.33,0.37l-11.12,3.06l-2.02,0.55c-0.12,0.03-0.23,0.07-0.35,0.12c-1.16,0.48-2.07,1.38-2.55,2.54
		c-0.46,1.11-0.48,2.33-0.06,3.45l1.78,5.69l0,0l3.62,11.56c-0.05,0.36-0.03,0.72,0.06,1.08c0.34,1.3,1.51,2.21,2.85,2.21h8.24
		c-0.7,0.57-1.17,1.37-1.31,2.28c-0.15,0.97,0.09,1.94,0.67,2.73c0.09,0.12,0.18,0.23,0.29,0.34l10.86,10.9
		c0.57,0.58,1.33,0.87,2.09,0.87c0.11,0,0.23-0.02,0.34-0.03c0.55,0.72,1.41,1.16,2.34,1.16h10.32c0.49,0,0.98-0.12,1.41-0.36
		l6.85-3.73c-0.81,1.17-1.15,2.1-1.28,2.62c-0.45,1.3-4.19,11.98-7.68,19.43c-1.46,3.11-5.02,8.92-10.57,17.26
		c-0.39,0.59-0.57,0.85-0.66,1c-0.15,0.05-0.48,0.07-0.66,0.08c-0.25,0.02-0.52,0.04-0.82,0.1c-0.57,0.11-1.78,0.32-1.79,0.32
		c-1.1,0.19-2,0.98-2.32,2.04c-0.33,1.07,0.41,1.17,1.21,1.94c0.23,0.23,1.95,3.26,4.89,3.26c2.04,0,4.09-1.28,4.67-1.68
		c0.25-0.17,0.48-0.38,0.66-0.62l20.28-25.88v9.56c0,0.52,0.14,1.03,0.4,1.48l8.11,13.94c0.2,0.34,0.46,0.64,0.78,0.87l11.19,8.42
		l4.16,4.97c0.56,0.67,1.39,1.06,2.26,1.06c0.87,0,1.7-0.39,2.26-1.06l4.16-4.97l11.19-8.42c0.31-0.24,0.58-0.53,0.78-0.87
		l8.11-13.94c0.26-0.45,0.4-0.96,0.4-1.48v-8.9l19.76,25.21c0.19,0.24,0.41,0.45,0.66,0.62c0.58,0.39,2.63,1.68,4.67,1.68
		c2.94,0,4.09-3.65,4.33-3.87c0.8-0.77,2.17-1.39,1.84-2.46c-0.33-1.07-1.29-0.72-2.39-0.91c-0.01,0-1.23-0.21-1.79-0.32
		c-0.3-0.06-0.58-0.08-0.82-0.1c-0.18-0.01-0.51-0.04-0.66-0.08c-0.1-0.16-0.28-0.42-0.66-1c-5.55-8.34-9.11-14.15-10.57-17.26
		c-3.45-7.36-7.22-18.12-7.68-19.44c-0.14-0.53-0.47-1.45-1.28-2.62l6.85,3.73c0.43,0.24,0.92,0.36,1.41,0.36h10.32
		c0.93,0,1.79-0.44,2.34-1.16c0.11,0.01,0.23,0.03,0.34,0.03c0.76,0,1.51-0.29,2.09-0.87l10.86-10.9c0.1-0.11,0.2-0.22,0.29-0.34
		c1.16-1.58,0.86-3.78-0.64-5.01h8.24c0.83,0,1.31-0.35,1.63-0.92c0.11,0.51,0.24,0.94,0.24,0.94l5.12-16.33l1.33-4.23
		C225.65,106.82,225.63,105.6,225.17,104.49z"/>
	<g>
		<g>
			<path class="st1" d="M73.75,101.72c-0.06,0.02-0.11,0.04-0.15,0.05l-10.6,2.9c-0.9,0.37-1.32,1.4-0.95,2.29l4.92,15.69
				l14.86-7.92L73.75,101.72z"/>
			<path class="st1" d="M96.57,135.08l-14.84-6.57c-0.02,0.01-0.29-0.01-0.31,0l-3.7,2.23c-0.32,0.24-0.39,0.69-0.16,1.01
				l10.86,10.9L96.57,135.08z"/>
			<polygon class="st1" points="120.83,121.61 120.83,118.84 76.8,100.79 84.29,113.19 			"/>
			<polygon class="st1" points="98.82,85.61 97.88,86.38 98.44,89.58 106.36,99.29 121.44,115.71 123.41,110.43 99.86,88.6 			"/>
			<polygon class="st1" points="120.83,123.7 84.53,116.14 67.58,125.54 120.83,125.54 			"/>
			<polygon class="st1" points="120.83,127.63 85.21,127.63 98.81,133.22 120.83,129.65 			"/>
			<polygon class="st1" points="101.42,143.78 120.83,133.22 120.83,131.31 100.13,135.49 91.11,143.78 			"/>
			<path class="st1" d="M111.23,146.09c0,0-4.07,11.81-7.84,19.86c-2.67,5.7-10.92,17.82-11.42,18.61
				c-0.98,1.57-2.76,1.35-3.38,1.47c-0.61,0.12-1.87,0.34-1.87,0.34s1.44,1.38,3.28,1.38c1.29,0,3.01-1.17,3.01-1.17l22.56-28.78
				v-11.92l6.18-8.52C111.99,141.77,111.23,146.09,111.23,146.09z"/>
			<path class="st1" d="M221.5,104.67l-10.6-2.9c-0.04-0.02-0.09-0.03-0.15-0.05l-8.08,13.01l14.86,7.92l4.92-15.69
				C222.82,106.07,222.4,105.04,221.5,104.67z"/>
			<path class="st1" d="M206.78,130.74l-3.7-2.23c-0.01-0.01-0.29,0.01-0.31,0l-14.84,6.57l8.15,7.57l10.86-10.9
				C207.18,131.43,207.11,130.98,206.78,130.74z"/>
			<polygon class="st1" points="163.67,121.61 200.21,113.19 207.71,100.79 163.67,118.84 			"/>
			<polygon class="st1" points="178.15,99.29 186.06,89.58 186.63,86.38 185.68,85.61 184.65,88.6 161.09,110.43 163.06,115.71 			
				"/>
			<polygon class="st1" points="163.67,123.7 163.67,125.54 216.92,125.54 199.97,116.14 			"/>
			<polygon class="st1" points="163.67,127.63 163.67,129.65 185.69,133.22 199.29,127.63 			"/>
			<polygon class="st1" points="163.67,133.22 183.08,143.78 193.4,143.78 184.37,135.49 163.67,131.31 			"/>
			<path class="st1" d="M192.54,184.56c-0.5-0.79-8.75-12.91-11.42-18.61c-3.77-8.05-7.84-19.86-7.84-19.86s-0.76-4.32-10.52-8.72
				l6.18,8.52v11.92l22.56,28.78c0,0,1.72,1.17,3.01,1.17c1.84,0,3.29-1.38,3.29-1.38s-1.26-0.22-1.87-0.34
				C195.3,185.91,193.52,186.12,192.54,184.56z"/>
		</g>
		<path class="st1" d="M159.22,136.72l2.46-1.78V118.6l-3.56-10.32l-3.04-1.72c0,0,0.96-4.83-1.87-6.76
			c-0.97-0.66-3.62-1.47-3.62-1.47s-1.14-1.23-2.06-2.52l6.6-9.52c0,0,8.17-4.11,8.78-6.02c0,0-1.72-0.98-10.07,4.48l-6.82,9.77
			c0,0-1.47-0.8-3.5-0.8c-2.03,0-3.5,0.8-3.5,0.8l-6.82-9.77c-8.35-5.47-10.07-4.48-10.07-4.48c0.62,1.9,8.78,6.02,8.78,6.02
			l6.6,9.52c-0.92,1.29-2.06,2.52-2.06,2.52s-2.65,0.82-3.62,1.47c-2.84,1.92-1.87,6.76-1.87,6.76l-3.04,1.72l-3.56,10.32v16.34
			l2.46,1.78l-7.25,10.26v25.12l8.11,13.94l11.46,8.62l4.38,5.23l4.38-5.23l11.46-8.62l8.11-13.94v-25.12L159.22,136.72z
			 M149.51,99.44l3.44,6.14l-4.67-1.66L149.51,99.44z M135.51,99.44l1.23,4.48l-4.67,1.66L135.51,99.44z M129.39,122.14l13.12-4.5
			l13.45,6.06l-4.52,10.07v-7.92l-8.93-4.71l-13.12,1.68V122.14z M150.5,170.68h-7.99h-7.98l-8.69-6.63l8.66,3.32h8.01h8.02
			l8.66-3.32L150.5,170.68z"/>
		<polygon class="st4" points="159.1,118.08 158.25,115.62 151.93,110.06 157.55,112.09 156.83,109.98 150.33,106.38 142.51,106.38 
			134.69,106.38 128.2,109.98 127.47,112.09 133.09,110.06 126.77,115.62 125.92,118.08 125.81,118.45 134.69,113.62 142.51,113.62 
			150.33,113.62 159.22,118.45 		"/>
		<polygon class="st4" points="161.64,175.53 150.56,179.59 142.51,179.52 134.47,179.59 123.38,175.53 127.53,182.66 
			135.94,185.54 129.86,185.6 139.07,192.54 142.51,192.54 145.95,192.54 155.16,185.6 149.08,185.54 157.5,182.66 		"/>
		<polygon class="st4" points="150.93,149.31 160.44,143.78 156.58,138.31 150.99,142.06 142.51,142.06 134.04,142.06 
			128.45,138.31 124.58,143.78 134.1,149.31 121.2,147.96 121.2,154.84 129.61,158.03 142.51,158.03 155.41,158.03 163.82,154.84 
			163.82,147.96 		"/>
	</g>
	<path class="st0" d="M49.46,140.21c0.54-0.61,0.86-1.4,0.86-2.27c0-1.9-1.54-3.44-3.44-3.44c-1.9,0-3.44,1.54-3.44,3.44
		c0,0.87,0.33,1.67,0.86,2.27c-1.1,0.8-1.83,2.1-1.83,3.57c0,2.43,1.97,4.4,4.4,4.4c2.43,0,4.4-1.97,4.4-4.4
		C51.29,142.31,50.56,141.01,49.46,140.21z M46.88,136.35c0.88,0,1.59,0.71,1.59,1.59c0,0.88-0.71,1.59-1.59,1.59
		c-0.88,0-1.59-0.71-1.59-1.59C45.29,137.06,46.01,136.35,46.88,136.35z M46.88,146.26c-1.37,0-2.48-1.11-2.48-2.48
		c0-1.37,1.11-2.48,2.48-2.48c1.37,0,2.48,1.11,2.48,2.48C49.36,145.15,48.25,146.26,46.88,146.26z"/>
	<path class="st0" d="M237.47,140.21c0.54-0.61,0.86-1.4,0.86-2.27c0-1.9-1.54-3.44-3.44-3.44c-1.9,0-3.44,1.54-3.44,3.44
		c0,0.87,0.33,1.67,0.86,2.27c-1.1,0.8-1.83,2.1-1.83,3.57c0,2.43,1.97,4.4,4.4,4.4s4.4-1.97,4.4-4.4
		C239.29,142.31,238.57,141.01,237.47,140.21z M234.89,136.35c0.88,0,1.59,0.71,1.59,1.59c0,0.88-0.71,1.59-1.59,1.59
		c-0.88,0-1.59-0.71-1.59-1.59C233.3,137.06,234.01,136.35,234.89,136.35z M234.89,146.26c-1.37,0-2.48-1.11-2.48-2.48
		c0-1.37,1.11-2.48,2.48-2.48c1.37,0,2.48,1.11,2.48,2.48C237.37,145.15,236.26,146.26,234.89,146.26z"/>
	<polygon class="st0" points="35.97,148.14 38.14,148.14 38.14,134.51 35.97,136 	"/>
	<path class="st0" d="M251.26,138.97c0-2.44-1.98-4.42-4.42-4.42c-2.44,0-4.42,1.98-4.42,4.42c0,2.44,1.98,4.42,4.42,4.42
		c0.05,0,0.1-0.01,0.15-0.01l-2.89,4.76h2.36l4.24-7.03l0,0C251.06,140.47,251.26,139.75,251.26,138.97z M244.36,138.97
		c0-1.37,1.11-2.48,2.48-2.48c1.37,0,2.48,1.11,2.48,2.48c0,1.37-1.11,2.48-2.48,2.48C245.47,141.45,244.36,140.34,244.36,138.97z"
		/>
	<polygon class="st5" points="101.24,59.24 99.57,55.77 104.98,53.18 103.39,49.85 97.98,52.45 96.32,48.98 103.11,45.72 
		101.52,42.4 94.72,45.65 92.16,46.88 91.4,47.25 99.51,64.16 100.27,63.79 102.83,62.56 109.96,59.15 108.36,55.82 	"/>
	<polygon class="st5" points="123.1,36.19 125.82,47.19 115.06,38.19 115.05,38.17 111.48,39.05 115.96,57.26 119.54,56.38 
		116.77,45.14 127.59,54.39 131.17,53.51 126.68,35.3 	"/>
	<path class="st5" d="M85.1,63.19l-0.08,0.11c1.31-1.81,1.31-4.33-0.16-6.14c-1.72-2.13-4.8-2.49-6.97-0.86l-0.01-0.02l-3.09,2.5
		l-2.02,1.64l-0.84,0.68L83.7,75.68l2.86-2.32l-4.81-5.95l1.11-0.9l8.2,3.21l3.85-3.11L85.1,63.19z M81.89,63.07L81.89,63.07
		l-2.2,1.79l-2.97-3.68l2.2-1.78l0.01,0.01c1.01-0.76,2.45-0.59,3.25,0.4C82.97,60.8,82.84,62.23,81.89,63.07z"/>
	<path class="st5" d="M201.96,65.27l-0.13-0.05c2.07,0.83,4.51,0.22,5.92-1.65c1.65-2.19,1.24-5.26-0.86-6.97l0.01-0.02l-3.18-2.39
		l-2.08-1.56l-0.87-0.65l-11.27,14.99l2.95,2.22l4.6-6.12l1.14,0.86l-1.12,8.74l3.96,2.98L201.96,65.27z M201.3,62.13L201.3,62.13
		l-2.27-1.7l2.84-3.78l2.27,1.7l-0.01,0.01c0.98,0.8,1.17,2.23,0.4,3.25C203.77,62.63,202.34,62.85,201.3,62.13z"/>
	<path class="st5" d="M69.04,75.68c0.31-1.54-0.2-3.2-1.49-4.28c-1.84-1.55-4.56-1.35-6.17,0.42l-0.01-0.01l-2.77,3.29l-0.68,0.8
		l-1.7,2.01l14.42,12.15l0.84-1l1.53-1.82l2.67-3.16l-0.02-0.01c1.78-2.29,1.43-5.62-0.84-7.54C73.14,75.11,70.89,74.86,69.04,75.68
		z M60.95,77.3l0.24-0.28l1.4-1.66l0.24-0.28l0.01,0.01c0.76-0.83,2.05-0.93,2.92-0.2c0.87,0.73,0.99,2.02,0.3,2.91l0.01,0
		l-0.24,0.28l-1.39,1.66l-0.24,0.28L60.95,77.3z M72.29,82.54L72.29,82.54l-0.26,0.33l-1.59,1.88l-0.27,0.32l-3.68-3.1l0.27-0.32
		l1.59-1.88l0.27-0.32l0.01,0.01c0.87-0.95,2.33-1.06,3.32-0.22C72.93,80.07,73.07,81.53,72.29,82.54z"/>
	<polygon class="st5" points="149.85,34.52 134.72,34.52 134.72,37.84 140.45,37.84 140.45,53.28 144.13,53.28 144.13,37.84 
		149.85,37.84 	"/>
	<polygon class="st5" points="169.03,41.15 169.69,37.9 158.66,35.66 158.66,35.66 158.66,35.66 154.91,54.03 158.52,54.77 
		160,47.5 165.86,48.7 166.52,45.45 160.66,44.25 161.61,39.64 	"/>
	<path class="st5" d="M183.09,42.8c-5.07-1.51-10.41,1.38-11.91,6.45s1.38,10.41,6.45,11.92c5.07,1.51,10.41-1.38,11.92-6.45
		C191.05,49.64,188.16,44.31,183.09,42.8z M178.67,57.65c-3.13-0.93-4.91-4.23-3.98-7.36c0.93-3.13,4.23-4.91,7.36-3.98
		c3.13,0.93,4.91,4.23,3.98,7.36C185.09,56.8,181.8,58.58,178.67,57.65z"/>
	<path class="st5" d="M222.87,71.46l-0.92-0.93l-3.82-3.82l-13.06,13.03l4.17,4.18l0,0l0.56,0.57c3.6,3.61,9.45,3.62,13.06,0.02
		C226.46,80.92,226.47,75.07,222.87,71.46z M211.72,81.77l-1.73-1.74l8.41-8.38l1.73,1.74c2.31,2.32,2.31,6.08-0.01,8.39
		C217.8,84.09,214.04,84.09,211.72,81.77z"/>
	<path class="st0" d="M120.64,237.79c1.16-0.23,2.16-1.05,2.52-2.23c0.52-1.7-0.45-3.49-2.16-4.09l0-0.01l-3.12-0.96l-0.76-0.23
		l-1.91-0.58l-4.06,13.27l0.95,0.29l1.72,0.53l3,0.92l0-0.01c2.13,0.56,4.33-0.62,4.97-2.72
		C122.28,240.42,121.77,238.81,120.64,237.79z M117.07,232.73l0.27,0.08l1.57,0.48l0.27,0.08l0,0c0.81,0.28,1.27,1.13,1.02,1.93
		c-0.25,0.8-1.1,1.25-1.93,1.03l0,0.01l-0.27-0.08l-1.57-0.48l-0.27-0.08L117.07,232.73z M116.87,241.94L116.87,241.94l-0.31-0.09
		l-1.79-0.54l-0.3-0.09l1.03-3.38l0.3,0.09l1.78,0.54l0.3,0.09l0,0.01c0.92,0.32,1.44,1.29,1.16,2.2
		C118.78,241.68,117.81,242.19,116.87,241.94z"/>
	<path class="st0" d="M223.31,198.98c0.29-1.15-0.02-2.4-0.94-3.23c-1.31-1.19-3.34-1.09-4.62,0.2l-0.01-0.01l-2.2,2.41l-0.54,0.59
		l-1.35,1.47l10.26,9.36l0.67-0.73l1.21-1.33l2.11-2.32l-0.01-0.01c1.42-1.69,1.3-4.18-0.33-5.66
		C226.39,198.63,224.72,198.4,223.31,198.98z M217.21,200.05l0.19-0.21l1.11-1.21l0.19-0.21l0,0c0.6-0.61,1.56-0.66,2.18-0.09
		c0.62,0.57,0.66,1.53,0.11,2.19l0,0l-0.19,0.21l-1.11,1.21l-0.19,0.21L217.21,200.05z M225.45,204.17L225.45,204.17l-0.21,0.24
		l-1.26,1.38l-0.21,0.24l-2.61-2.39l0.22-0.24l1.26-1.38l0.21-0.23l0,0c0.68-0.69,1.78-0.75,2.48-0.11
		C226.04,202.33,226.08,203.43,225.45,204.17z"/>
	<polygon class="st0" points="109.95,227.79 99.55,223.36 98.58,225.63 102.51,227.31 97.99,237.92 100.52,239 105.05,228.39 
		108.98,230.07 	"/>
	<path class="st0" d="M72.85,205.28c-3.98,0-7.2,3.22-7.2,7.2c0,3.98,3.22,7.2,7.2,7.2c3.98,0,7.2-3.22,7.2-7.2
		C80.05,208.5,76.82,205.28,72.85,205.28z M72.85,216.92c-2.46,0-4.45-1.99-4.45-4.45c0-2.45,1.99-4.45,4.45-4.45
		c2.45,0,4.44,1.99,4.44,4.45C77.29,214.93,75.3,216.92,72.85,216.92z"/>
	<path class="st0" d="M87.25,216.58c-3.98,0-7.2,3.22-7.2,7.2c0,3.98,3.22,7.2,7.2,7.2c3.98,0,7.2-3.22,7.2-7.2
		C94.45,219.8,91.23,216.58,87.25,216.58z M87.25,228.22c-2.46,0-4.45-1.99-4.45-4.45c0-2.46,1.99-4.45,4.45-4.45
		c2.45,0,4.44,1.99,4.44,4.45C91.69,226.23,89.7,228.22,87.25,228.22z"/>
	<path class="st0" d="M207.2,207.32l5.65,6.3c0.98,1.09,0.89,2.77-0.2,3.74c-1.09,0.98-2.77,0.89-3.75-0.2l-5.65-6.3l-1.97,1.77
		l6.6,7.36c1.46,1.63,4.4,1.36,6.58-0.6c2.18-1.95,2.77-4.85,1.31-6.48l-6.6-7.36L207.2,207.32z"/>
	<path class="st0" d="M188.53,230.83c0.03,1.6-0.81,3.17-2.32,3.98c-2.15,1.14-4.82,0.33-5.96-1.82c-1.14-2.15-0.33-4.81,1.82-5.96
		c1.43-0.76,3.1-0.65,4.38,0.14l0.63-2.66c-1.93-0.88-4.24-0.9-6.26,0.18c-3.44,1.83-4.74,6.11-2.91,9.55
		c1.84,3.44,6.11,4.74,9.55,2.91c2.28-1.21,3.61-3.5,3.72-5.91C190.22,231.09,189.12,230.91,188.53,230.83z"/>
	<polygon class="st0" points="148.04,244.71 147.52,233.54 144.87,233.66 145.51,247.49 145.51,247.49 148.16,247.36 153.53,247.11 
		153.4,244.46 	"/>
	<polygon class="st0" points="162.11,242.76 160.38,231.71 157.76,232.12 159.9,245.79 159.9,245.79 162.51,245.38 167.82,244.55 
		167.41,241.93 	"/>
	<polygon class="st0" points="199.39,227.52 193.06,218.3 190.87,219.8 198.71,231.2 198.71,231.2 200.9,229.7 205.32,226.66 
		203.82,224.47 	"/>
	<polygon class="st0" points="68.83,202.16 70.77,200.72 65.9,194.13 65.9,194.13 65.9,194.13 54.92,202.25 56.51,204.4 
		60.85,201.19 63.44,204.69 65.38,203.26 62.79,199.76 65.55,197.72 	"/>
	<path class="st0" d="M136.32,247.39l2.82,0.31l-3.74-14.32l-2.84-0.31l-6.79,13.15l2.82,0.31l1.47-2.84l5.45,0.61L136.32,247.39z
		 M131.36,241.16l2.21-4.28l1.22,4.66L131.36,241.16z"/>
</g>
</svg>
