<?xml version="1.0" encoding="utf-8"?>
<!-- Generator: Adobe Illustrator 19.0.0, SVG Export Plug-In . SVG Version: 6.00 Build 0)  -->
<svg version="1.1" id="layer" xmlns="http://www.w3.org/2000/svg" xmlns:xlink="http://www.w3.org/1999/xlink" x="0px" y="0px"
	 viewBox="-153 -46 652 652" style="enable-background:new -153 -46 652 652;" xml:space="preserve">
<style type="text/css">
	.st0{clip-path:url(#XMLID_39_);fill:url(#XMLID_42_);}
	.st1{fill-rule:evenodd;clip-rule:evenodd;fill:#AFDAF4;}
	.st2{fill-rule:evenodd;clip-rule:evenodd;fill:#FDEE00;}
	.st3{fill-rule:evenodd;clip-rule:evenodd;fill:#780336;}
	.st4{fill-rule:evenodd;clip-rule:evenodd;fill:#051325;}
	.st5{fill:#F9C200;}
	.st6{fill:#FDEE00;}
	.st7{fill-rule:evenodd;clip-rule:evenodd;fill:#FFED00;}
	.st8{fill:#FFED00;}
	.st9{fill:none;stroke:#002B59;stroke-width:1.1526;}
	.st10{fill:#002B59;}
	.st11{fill-rule:evenodd;clip-rule:evenodd;fill:#002B59;}
	.st12{fill:#780336;}
	.st13{fill-rule:evenodd;clip-rule:evenodd;fill:#F7BF00;}
	.st14{clip-path:url(#XMLID_45_);fill:url(#XMLID_49_);}
	.st15{clip-path:url(#XMLID_50_);fill:url(#XMLID_53_);}
</style>
<g id="XMLID_165_">
	<defs>
		<path id="XMLID_166_" d="M-30.7,43.4v242.2c0,53.1,21.5,104,62.1,147.2c36.8,39.1,86.4,68.7,139.8,83.3l4,0.9l4.5-0.4l0.2,0
			c15.8-2.2,36.1-11.1,42-13.7c21.7-9.8,42.3-22.2,61-36.9c54.3-42.5,87-99.8,94.6-165.6l0.1-257H-30.7z"/>
	</defs>
	<clipPath id="XMLID_39_">
		<use xlink:href="#XMLID_166_"  style="overflow:visible;"/>
	</clipPath>
	
		<linearGradient id="XMLID_42_" gradientUnits="userSpaceOnUse" x1="-256.361" y1="591.2125" x2="-235.0172" y2="591.2125" gradientTransform="matrix(12.4714 22.8534 22.8534 -12.4714 -10322.7705 13178.3682)">
		<stop  offset="0" style="stop-color:#040000"/>
		<stop  offset="5.484474e-002" style="stop-color:#1C1702"/>
		<stop  offset="0.2005" style="stop-color:#564F07"/>
		<stop  offset="0.3463" style="stop-color:#887F0B"/>
		<stop  offset="0.4889" style="stop-color:#B0A70E"/>
		<stop  offset="0.6275" style="stop-color:#D0C511"/>
		<stop  offset="0.7613" style="stop-color:#E7DB13"/>
		<stop  offset="0.8879" style="stop-color:#F4E914"/>
		<stop  offset="1" style="stop-color:#F9ED14"/>
	</linearGradient>
	<polygon id="XMLID_167_" class="st0" points="283.9,-128.3 576.7,408.3 63,688.7 -229.9,152 	"/>
</g>
<g id="XMLID_3_">
	<path id="XMLID_164_" class="st1" d="M-13.5,60.4h373.8v238c-16.9,146.3-160.5,197.8-184.9,201.2c-100.4-27.4-189-111.8-189-214
		V60.4z"/>
	<path id="XMLID_163_" class="st2" d="M78.8,225.9v84.5c0,0,7,31.7,12.5,37.3c5.6,5.6,29.1,32.8,38.1,36.8c9,4,46.7,20.5,46.7,20.5
		l49.6-23.2l26.4-24.2l14.7-22l4-16.2l0.4-31.9l0.9-64.2L78.8,223L78.8,225.9z"/>
	<path id="XMLID_162_" class="st3" d="M80.8,318h8.8v-12.2h9.5v-11.5h13.4v-13.4h13.2v-12h13.4v-12.5h15.6v-13.2h14.6l6.9-10.7
		l8.1,10.7h13.6l0.2,14h13.2v10.8h12.4v12.5h11.5v14h12.7v12h13.4v14.4h7.8c0,0-0.7,6.9-2.4,11c-1.7,4.1-4.9,6.3-4.9,6.3h-11.7
		v-15.2h-16.3v-13.7h-12.9v-12.7h-13.2v-13h-12.7v-13.2h-12v-13h-3.2h-11.7v12.5h-13.4v13.4h-13.9v13h-13.2v13.5h-14.1v13.4H101
		v13.2H89.3c0,0-4.9-6.1-6.3-10.3C81.5,321.9,80.8,318,80.8,318"/>
	<rect id="XMLID_161_" x="79.4" y="170" class="st4" width="192" height="57.8"/>
	<path id="XMLID_160_" class="st4" d="M192.7,293.3c-1.5,4.1,3.9,6.1,1.7,9.9c-0.8,1.5-1.6,3.2-1.7,4.9c-1,1.5-0.8,3.5-0.7,5.4
		c0.2,0.2,0.1,0.6,0.1,0.9c-0.8,0.5-2-1.1-2.5,0.6c0.4,0.9,0.3,2.2,0.8,3.2l-1.9,0.4c0,1.3,0.7,2.3-0.1,3.5c-2.6,0-2.4-2.7-4.1-3.9
		c-1,0.1-1.4,1.4-2.2,1.7c-0.4,0.6-1.3,1.1-2.1,1.2c-0.3-1.3,0.4-2.9-1.1-3.4c-1.3,0.5-2.3,1.6-3.8,1.8c-0.1,0.4-0.5,0.3-0.8,0.3
		c-0.3-1.3,1.2-2.4,0.8-3.8c-0.4-0.4-0.7-0.9-1.3-0.7c-0.6,0.3-1.4,0.6-1.9,0.6c-0.3,0.7-1,0.3-1.5,0.4c-0.1-2.2,1.8-3.6,3.1-5.2
		c2.1-0.9,4.1-1.8,6.6-2c1.5-0.5,3.2-1.3,3.4-3.1c0.1-0.5-0.1-0.9-0.4-1.2c-0.8,0.2-1.1,1.1-1.3,1.7c-0.9,0.9-2.1,1.8-3.2,1.2
		c-0.5-0.2-1.1-0.5-1.7-0.7v-0.1c0.9-0.2,2.2-0.2,2.7-1.4c0.6-1.3-0.2-2.3-0.3-3.7c0-0.5-0.1-1-0.6-1.4c-2.1-0.1-3.6,1.4-5.7,0.3
		c-0.5-0.8-0.1-1.6-0.3-2.7c1.3-0.6,2.4-1.7,3.9-1.7c1.4,0.4,2.4,2.4,4,1.7c1.1-0.6,1.9-1.5,3.3-1.7c-0.1-0.8-1.2-1.3-1.7-1.6
		c-1.3,0.3-2.2,1-3.5,0.6c0-0.8,0.9-1.1,1.3-1.5c1.8,0.2,3,0.7,4.8,0.3c1-0.2,2.1-0.4,3.3-0.6c0.5-0.4,1.3-0.2,1.9-0.7
		C191,292.7,191.9,292.7,192.7,293.3"/>
	<path id="XMLID_159_" class="st4" d="M201,345.1c1.2,2.7,2.1,5.7,0.9,8.7c-0.6,2.3-1.8,4.4-4.1,5.5c-1.5,1.6-5.1-0.1-5.7,2.6
		c-0.7,1.6-1,3.5-0.8,5.5c0.2,1.3,1.7,1.4,2.7,1.9c0.6,0,1.4,0.2,1.6,0.9c-0.1,1.8,0.8,3.5,0.2,5.1c-1.3,0.8-2-1.6-3.2,0
		c-0.4,2.2,0.6,4.1,1.2,6c-1.1,0.6-2-0.6-2.9,0.6c-0.3,2.2,0.6,3.7,0.8,5.7c-1.5,0.7-2.8-1.6-3.6,0.5c0.2,1-0.2,2.2,0.3,3
		c0.3,1.1-0.7,1.2-1.5,1.1c-0.8-0.5-1.8-0.2-2.6-0.2c-1,0.3-1.3,1.5-2.3,1.6c-0.5,0.9-1.7,0.6-2.4,1.2l-3-0.2
		c-0.3-1.8,1.6-2.2,2.5-3.3c-0.4-0.7-1.3-0.3-1.9-0.4c-1.1,0.4-2.1,2-3.4,1.2c-0.7-0.2-1.3-0.8-0.8-1.6c1.1-2,3.2-1.9,5.1-2
		c-0.4-1-1.7-0.5-2.3-1.2c-1.3,0.4-2.6,0.8-4,0.7c-0.2-0.1-0.6-0.4-0.5-0.7c0.4-1.6,2-1.8,3.2-2.6c3.5-0.7,5.3,2.2,8.6,1.3l2.6-2.3
		c0.4-4.8,2-10.8-2.3-14c-2.6-2.4-7.7-4.3-7.7-8.9c-0.1-3.4,3.4-6.5,1.4-10c-0.1-1-0.8-1.7-1.1-2.6c-0.3-0.7-1.1-1.5-1.7-1.9
		c-0.7,0.4-0.4,1.3-0.3,1.9v-0.1c-1.2-1-2.3-1.8-3.4-2.8h13.9c1.1,2,2.8,3.9,4.3,5.7c1.7,1.8,2,4.7,4.1,6.1c1-0.4,2.8,0.2,3.5-0.6
		c1.2-0.2,2.4-0.9,3.2-2c1.4-2.1,0.7-5.5-0.5-7.6c-1.4-2-3.8-0.5-5.6-1.3c-0.3-0.1-0.6-0.1-0.9-0.2H201z"/>
	<path id="XMLID_158_" class="st4" d="M170.7,345.1c-1.4-1.2-2.7-2.6-3.4-4.5c0-0.5,0.6-0.8,0.8-1.1c0.9,0.1,1.3-0.7,2.2-0.8
		c0.8-1.5,1.3-3.2,1.5-4.9c-0.3-0.2-0.5-0.7-1-0.7c-0.6,1.3-0.5,3.5-1.9,4.6c-1.1,0.2-2.3,1.2-3.4,1.1c-1.8,0.4-1.2,5.1-3.9,2.8
		c-0.8,0.3-2-1.2-2,0.4c-0.1,0.8,0.4,2-0.5,2.3c-1.8,0.1-2-2.9-3.8-2.4c-1,0.7-0.5,3.2-2.3,2.3c-0.7-0.6-1.3-1.7-2.6-1.6
		c-1.7,0.7-2.9,1.6-4.6,0.8c0.4-1.1,0.4-2,1.2-2.9c0.1-0.7-0.6-0.8-1-0.5c-0.7,0.7-1.8,1.4-2.7,1.4c-0.5-1.5,1.4-2.6,1.5-4.2
		c-0.2-0.5-0.8-0.5-1.2-0.3c-1,0.7-1,2.7-2.7,2c-0.4-0.5,0.1-1.2,0.1-1.9c1-0.7,1.7-2.3,3.2-2.3c0.3-0.7,1.2-0.1,1.6-0.7
		c0.6,0.5,1.6,0.1,2.2,0.4c2.1,1.1,4.9,2.6,7.1,1.2c1.4-0.2,2.3-1.7,3.4-2.4c2.2-1.9,4.9-4,7.3-5.9c0.4-0.8-0.6-0.5-1-0.7
		c-3.2,1.1-6.3-0.3-9-1.4c0.1-1.7,1.9-1.2,2.3-2.7c-0.3-1.6-2.3-1.3-3.4-1.9c0.3-1.4,2.9-2.6,1.1-3.9c-0.8-0.1-1.7-0.3-2.3-0.8v-0.4
		c0.5-0.3,1.1-1,1.5-1.5c1.2-1.4,1.2-3.5,1.1-5.4c-1.7-2.3-6.1-3.5-6.1-6.8c1.5-0.8,3.2,0.6,4.7,0.7c0.1-2-4.1-2-2-3.8
		c1.4-0.2,2.5-0.7,3.9-0.1l0.4-0.4c-0.5-1.4-3-0.7-2.3-2.5c2.2-1.8,5.1-0.7,7.2,0.8c0.4,0.8,1.4,2,0.8,3c0.7,1.1-0.3,2.7-0.1,3.9
		c-2,3.8-0.3,8.1,1.5,11.4c1.2,2.1-1.3,3.8-1.6,5.8c-0.1,0.8-0.9,1.7-0.4,2.3l0.8,0.5c1.1-0.1,2.3-0.1,3.5,0l0.3-0.2
		c0.5,0.7-0.5,2,0.9,2.2c1.1-0.1,2.2-0.2,3.2-0.8c0.4,0.2,1,0.4,1,1c0,1.2,0.5,2.4,1.1,3.5c0.1,0.4,0.8,0.3,1,0.1
		c1-0.5,1.9-2.9,3.2-2c1.3,1.2,2.3,3.7,4.4,3.9c0.6-1,0.5-2.3,1-3.2c0.9-0.1,1.3,0.7,2,0.8c0.7,1.9-0.6,3.6-0.7,5.4
		c0.3,1.8-0.8,3.6,0,5.4c-0.3,2,0.2,3.7,1.1,5.4H170.7z"/>
	<path id="XMLID_157_" class="st4" d="M192.8,345.1c-1.2-0.4-2.3-1-3.1-2.2c0.8-0.1,1.3,0.1,2,0.4c0.7-0.5,1.5,0.6,2.3,0
		c0.4-0.1,0.8-0.1,1-0.5c-1.9-2.2-5.8-2.9-6.2-6.4c1.3,1.4,3.3,1.9,5.3,1.7c0.5-0.5-0.2-0.9-0.3-1.3c-1.2-0.9-2-2.3-2.9-3.4
		c-0.4-0.8-0.7-1.9-0.7-2.7c0.7,0.6,1.7,1.5,2.7,1.2c0.8-1.6,0.2-3.4,1-5.1c-0.8-2.3,1.5-4.1,1.3-6.5c1.6-2.3,2-5,3.8-7.1
		c2.1-2.3,4.6-4.3,7.6-4.1c0.5,0.3,0.9-0.4,1.4-0.1c2.6,1,2.8,3.6,3.2,5.8c0.4,1.4,0.3,2.6,0.1,4.1c-0.5,4.4-2.6,8-3.9,12.1
		c-0.5,1.1-0.7,2.2-1.2,3.4c-1.2-0.4-0.7-2.2-1-3.6c-0.4-0.7-1.4-0.4-2-0.2c-0.3-3.1,1.9-5.2,3.4-7.6c0.1-0.2-0.1-0.8-0.5-0.8
		c-1.3,0.1-1.9,0.3-2.8,1.1l-0.4-0.3c1-2.9,4.2-3.7,5.6-6.1c0.1-1,0.9-2.3,0.1-3.2c-0.2-1.5-1.9-1.9-2.9-2.5c-4.6,0.8-7.6,5.3-9,9.5
		c-0.4,2.2-1.6,4.1-1.5,6.6c-0.5,2.9,0.3,6.3,0.8,9c1.3,2.4,2.3,4.9,3.9,7.1c0.3,0.6,0.6,1.2,0.9,1.8H192.8z"/>
	<path id="XMLID_156_" class="st4" d="M168.4,315.1c-0.1,1.1-1,1.9-0.7,2.9c1,1.6,2.2-0.3,3.5,0.1c0.3-0.4,1.1-0.5,1.4-0.1
		c-0.5,1-1.3,2-1.3,3c2.1,1.1,4.1,0.2,6.3-0.4c0.4,0.8-1,2.2,0.7,2.7c2-0.3,3.8-0.8,5.3-2.1c1.5-0.4,2.2,1.7,3.4,2.1
		c0,0.4,0.6,0.8,0,1.2c-0.8-0.1-2.1-0.4-2.3,0.8c0.2,0.4,0.1,1.1,0.2,1.7c-1.2-0.3-2.1-1.7-3.5-1.7c-1.3,0.8-0.5,3.1-2,3.2
		c-1.5-1-0.8-3.4-2.8-3.5c-1.2,0.6-2,1.9-3.2,2.3c-0.8-1.4,0-3.3-1.2-4.5c-1.2,0-2,1.2-3.3,0.5c-0.4-1.1,1-2.6-0.7-3.1
		c-1.3,0.5-2.6,1.2-4.1,1.4l-0.3-0.7c1-2.3,1.9-4.4,4.2-5.8L168.4,315.1z"/>
	<path id="XMLID_155_" class="st4" d="M169.3,350.1c1.1,0.5,2.6,0.4,4.1,0.4c1.4,1.4-0.7,4.7,2.6,4.4c-1.1,2.2-1.5,4.9-2,7.2
		c-2.7,0.4-5.9-2.6-7.9,0.4c-0.2,1,0.3,1.4,0.5,2.3c1.1,1.4,1.3,3.4,1.6,5.2c0.1,0.3,0,0.9-0.5,0.7c-1.2-0.5-2.1-1.5-3.4-1
		c-0.9,1.7,1.2,3.5,0.3,5.4c-0.4,0.8-1.1,0.1-1.5-0.2c-0.2-0.5-1-0.4-1.5-0.7c-1.4,0.7-0.5,2.3-0.9,3.3c-1,0.6-2-1-2.9,0
		c-1.5,2.3-4.2,2.9-6.6,2.6c-0.4-1.1,0.8-2.5,1.7-3.2c0.1-0.1,0.1-0.3,0.1-0.5c-0.2-0.3-0.5-0.4-1-0.4c-1.4,0.5-2.3,1.9-3.8,1.5
		c-0.4-1.2,0.7-2,1.2-2.7c0.4-0.4,1.4-0.3,1.4-1.2c-1.4-0.9-2.6,0.6-3.8,0.9c-0.4-1.8,1.9-2,2.9-2.7c0.8,0,1.9,0,2.6,0.5
		c2.6,0.7,5.2-1,6.7-3.1c1.8-4.8,0.6-8.8,0.9-14.1c1.1-1.7,1.6-4.1,3.7-5.1H169.3z"/>
	<path id="XMLID_154_" class="st2" d="M177.7,183.8l-0.2,0.5c-0.6,3.5,0.5,6.7-0.3,9.7c-0.3,0.7-1.5,0.8-2.2,0.6
		c-1.1-1.9,0.3-3.7-0.7-5.6c0.5-2.9-1-6.6,1.3-9.2C177.9,179.7,177.2,182.4,177.7,183.8"/>
	<path id="XMLID_153_" class="st2" d="M172.7,181.9c0.8,3.5,0.3,8.1,0.5,12.2c0,0.5-0.6,0.9-0.9,1.1c-0.3-0.2-0.9,0-1.2,0.3
		c-1.9-3.1-0.7-6.9-1-10.6c0.3-1.4,0.6-2.5,1.6-3.4C172.1,181.5,172.5,181.6,172.7,181.9"/>
	<path id="XMLID_152_" class="st2" d="M181.1,182.1c0.7,3.5-0.2,6.9,0.2,11c-0.6,0.5-0.2,1.5-0.9,1.7c-0.7,0.2-1.3-0.3-1.5-0.8
		c-0.1-3.5-0.4-7.1,0-10.9C179.3,182.3,179.9,181.2,181.1,182.1"/>
	<path id="XMLID_151_" class="st2" d="M169,186.7c0,3.1,0.1,6-0.4,9c-0.3,0.8-1.4,0.3-1.8,1.2c0.1,0.7,0.9,1.1,1.5,1.5
		c1.6,0.2,2.6-0.6,4-0.5c1.2-0.5,2.8,0.3,3.8-0.6c1.8,0.3,4.1-0.6,5.4,0.7c-0.5,1.9-3.1,1.3-4.6,2.2c-1.1,0.4-2.3,0.4-3.2,1.3
		c-0.1,2.5-0.7,5.1,0.6,7.2c0.4-0.3,1-0.9,0.4-1.5l0.3-3.9c1.1-1.5,2.9-1.6,4.6-2.3c1-0.4,2.9-0.3,3.6-1.3c0.2-2.7-1.1-5.3,1-7.3
		c1.4,0.1,0.7,2.9,2.9,2.5c0.3,0.8,0,2-0.3,2.9c0,2.8,0,6,0.1,8.8c-0.9,2.6-2.8,5.8-6,6c-0.6,0.3-0.9,0.6-1.2,1.2
		c0.3,0.8,1.5,0.3,1.5,1.5c0.3,1.4,0.3,2.9-0.6,4.2c-1.6,0.1-3.1,0.4-4.5,0.9c-1.2-0.7-2.9-0.4-4.2-0.9c-0.7,0-1.3,0.6-2,0.2
		c0.1-1.6-0.1-3.8-0.4-5.5c-0.8-0.9-1.7-1.6-2.7-2.2c-1.7-7.3-1.1-14.8-0.3-21.7c-0.1-1.8,0.2-3.9,1.2-5.3
		C169.3,184.4,168.4,186.3,169,186.7"/>
	<polygon id="XMLID_150_" class="st4" points="106.2,236.3 96.5,252.5 106.4,270.9 116,252.4 	"/>
	<polygon id="XMLID_149_" class="st4" points="248.1,235.3 238.3,251.5 248.2,269.9 257.8,251.4 	"/>
	<path id="XMLID_148_" class="st4" d="M18.7,315.7c0,0-1.8-11.1,0-15.8c1.8-4.8,8-11.7,13.7-11.7c5.6,0,12.8,7.5,14,12
		c1.2,4.5-0.9,10.8-1.2,15.8c-0.3,5.1,0.3,13.4,0.3,13.4l-25-6.3L18.7,315.7z"/>
	<path id="XMLID_145_" class="st5" d="M17.2,315.9c0,0-1.9-11.5,0.1-16.6c0.3-0.7,0.7-1.5,1.1-2.3c0.4-0.8,0.9-1.6,1.5-2.4
		c3-4.1,7.9-8,12.5-8h0c0.9,0,1.9,0.2,2.9,0.5c0.9,0.3,1.9,0.7,2.8,1.2c4.6,2.6,8.8,7.8,9.8,11.4v0c0.9,3.2,0.2,7.1-0.4,10.8
		c-0.3,1.9-0.6,3.8-0.7,5.4c-0.3,5,0.3,13.2,0.3,13.2l0.2,2.1l-2.1-0.5l-25-6.3l-0.9-0.2l-0.2-0.9l-1.8-7.5L17.2,315.9z M20.2,300.4
		c-1.6,4.2,0,14.2,0.1,15l1.5,6.5l22.1,5.5c-0.1-2.8-0.4-8-0.1-11.5c0.1-1.9,0.4-3.8,0.7-5.8c0.6-3.4,1.2-7,0.5-9.5l0,0
		c-0.8-2.9-4.4-7.2-8.3-9.5c-0.7-0.4-1.5-0.8-2.2-1c-0.7-0.2-1.3-0.3-2-0.4v0h0c-3.5,0-7.4,3.2-10,6.7c-0.5,0.7-1,1.4-1.3,2.1
		C20.7,299.1,20.4,299.8,20.2,300.4"/>
	<path id="XMLID_144_" class="st4" d="M45.8,309.7c0,0-10.1-0.3-13.7,3.3c-3.6,3.6-5.6,5.7-5,8.1c0.6,2.4,6.8,3,9.5,3.6
		c2.7,0.6,8.9,0.9,8.9,0.9s-0.3-7.4-0.3-10.8C45.2,311.5,45.8,309.7,45.8,309.7"/>
	<path id="XMLID_141_" class="st5" d="M43.9,311.2c-2.9,0.1-8.5,0.6-10.7,2.8v0c-1.8,1.7-3.1,3.1-3.9,4.2c-0.6,0.9-0.9,1.6-0.7,2.3
		c0.3,1,3.9,1.6,6.5,2.1c0.6,0.1,1.2,0.2,1.9,0.3c1.7,0.4,5,0.6,7,0.7c-0.1-2.4-0.2-6.9-0.2-9.1C43.7,313.3,43.8,312.1,43.9,311.2
		 M31,311.9c4-4,14.8-3.7,14.8-3.7l2.1,0.1l-0.7,1.9c0,0-0.5,1.5-0.5,4.6c0,3.4,0.3,10.7,0.3,10.7l0.1,1.7l-1.7-0.1
		c0,0-6.4-0.3-9.2-0.9c-0.3-0.1-1-0.2-1.7-0.3c-3.4-0.6-8.2-1.5-9-4.4c-0.4-1.7,0.1-3.2,1.2-4.8C27.8,315.2,29.2,313.7,31,311.9z"/>
	<path id="XMLID_140_" class="st4" d="M23.2,350.3c0,0-6-11.7-6.6-20.3c-0.6-8.7,1.5-16.7,1.5-16.7s7.2,6.9,11.9,9
		c4.8,2.1,24.4,4.8,27.7,6c3.3,1.2,11,5.7,11.6,10.1c0.6,4.5-0.9,17.9-2.4,20.3c-1.5,2.4-3.9,3.9-3.9,3.9l-39.3-7.7L23.2,350.3z"/>
	<path id="XMLID_137_" class="st5" d="M21.7,350.8c-0.9-1.8-6-12.4-6.6-20.7c-0.6-8.9,1.5-17.2,1.5-17.2l0.6-2.6l1.9,1.8
		c0,0,6.9,6.6,11.4,8.6l0,0c2.6,1.2,10.5,2.6,17.1,3.8c4.8,0.9,9,1.6,10.5,2.2c0.5,0.2,1.1,0.4,1.8,0.7c0.6,0.3,1.3,0.6,2,1.1
		c3.8,2.2,8.3,5.8,8.8,9.6v0c0.1,0.7,0.1,1.6,0.1,2.6c0,1,0,2-0.1,3.1c-0.3,5.9-1.5,13.7-2.7,15.6c-1.7,2.7-4.4,4.4-4.4,4.4
		l-0.5,0.3l-0.6-0.1l-39.3-7.8l-1.1-0.2l-0.1-1.1L21.7,350.8z M18.2,329.9c0.6,8.4,6.4,19.7,6.4,19.7l0.2,0.5l0.4,3.4l37.6,7.4
		c0.7-0.5,2-1.6,2.9-3.1c0.9-1.5,1.9-8.6,2.2-14.1c0.1-1.1,0.1-2.1,0.1-3c0-0.9,0-1.6-0.1-2.2c-0.3-2.6-4.1-5.5-7.3-7.3
		c-0.6-0.3-1.2-0.7-1.8-0.9c-0.6-0.3-1.1-0.5-1.5-0.6h0c-1.2-0.4-5.3-1.2-9.9-2c-6.8-1.2-14.8-2.7-17.8-4h0l0,0
		c-3.4-1.5-7.8-5.2-10.4-7.4C18.5,319.2,17.8,324.4,18.2,329.9"/>
	<path id="XMLID_136_" class="st4" d="M330.7,316.4c0,0,1.8-11.1,0-15.8c-1.8-4.8-8-11.6-13.7-11.6c-5.6,0-12.8,7.5-14,11.9
		c-1.2,4.5,0.9,10.8,1.2,15.9c0.3,5.1-0.3,13.4-0.3,13.4l25-6.3L330.7,316.4z"/>
	<path id="XMLID_133_" class="st5" d="M329.2,316.1c0.1-0.9,1.6-10.8,0.1-15c-0.2-0.6-0.5-1.2-0.9-1.9c-0.4-0.7-0.8-1.4-1.3-2
		c-2.6-3.5-6.5-6.7-10-6.7h0c-0.6,0-1.3,0.1-2,0.3c-0.7,0.2-1.5,0.6-2.2,1c-3.9,2.3-7.5,6.6-8.3,9.5l0,0.1c-0.7,2.6-0.1,6.1,0.5,9.5
		c0.3,2,0.7,3.9,0.8,5.7c0.2,3.6,0,8.7-0.2,11.5l22.1-5.5L329.2,316.1z M332.2,300.1c1.9,5.2,0.1,16.6,0.1,16.6c0,0,0,0.1,0,0.1
		l-1.8,7.4c-0.1,0.6-0.5,1.1-1.2,1.3l-25,6.3c-0.1,0-0.3,0.1-0.5,0.1c-0.8-0.1-1.5-0.8-1.4-1.6c0,0,0.6-8.3,0.3-13.3
		c-0.1-1.7-0.4-3.6-0.7-5.4c-0.6-3.8-1.3-7.6-0.4-10.8l0,0c0.9-3.6,5.2-8.8,9.8-11.4c0.9-0.5,1.8-1,2.8-1.2c1-0.3,2-0.5,2.9-0.5h0
		c4.6,0,9.4,3.9,12.5,7.9c0.6,0.8,1.1,1.6,1.5,2.4C331.5,298.5,331.9,299.3,332.2,300.1L332.2,300.1z"/>
	<path id="XMLID_132_" class="st4" d="M303.6,310.4c0,0,10.1-0.3,13.7,3.3c3.6,3.6,5.7,5.7,5.1,8.1c-0.6,2.4-6.9,3-9.5,3.6
		c-2.7,0.6-8.9,0.9-8.9,0.9s0.3-7.5,0.3-10.8C304.2,312.2,303.6,310.4,303.6,310.4"/>
	<path id="XMLID_129_" class="st5" d="M303.6,308.9c0,0,10.8-0.3,14.8,3.7c1.8,1.9,3.3,3.3,4.3,4.7c1.2,1.7,1.6,3.2,1.2,4.9v0
		c-0.7,2.9-5.5,3.8-8.9,4.4c-0.7,0.1-1.4,0.2-1.8,0.3c-2.8,0.6-9.2,0.9-9.2,0.9c-0.9,0-1.6-0.6-1.6-1.5v-0.2c0-0.6,0.3-7.4,0.3-10.7
		c0-3.1-0.5-4.6-0.5-4.6c-0.3-0.8,0.2-1.7,1-1.9C303.3,309,303.4,308.9,303.6,308.9 M316.3,314.8c-2.2-2.2-7.8-2.7-10.7-2.8
		c0.1,0.9,0.2,2.1,0.2,3.5c0,2.3-0.1,6.7-0.2,9.1c2-0.1,5.3-0.4,7-0.7c0.6-0.1,1.2-0.3,1.9-0.4c2.6-0.4,6.3-1.1,6.5-2.1
		c0.2-0.7-0.1-1.5-0.7-2.3C319.4,317.9,318,316.6,316.3,314.8z"/>
	<path id="XMLID_128_" class="st4" d="M326.3,351.1c0,0,6-11.7,6.6-20.3c0.6-8.7-1.5-16.7-1.5-16.7s-7.1,6.9-11.9,9
		c-4.8,2.1-24.4,4.8-27.7,6s-11,5.7-11.6,10.1c-0.6,4.5,0.9,17.9,2.4,20.3c1.5,2.4,3.9,3.9,3.9,3.9l39.3-7.7L326.3,351.1z"/>
	<path id="XMLID_125_" class="st5" d="M324.9,350.3c0.4-0.9,5.8-11.6,6.4-19.7c0.4-5.5-0.4-10.7-0.9-13.6c-2.5,2.2-7,5.9-10.4,7.4h0
		l0,0c-3,1.3-11,2.7-17.8,4c-4.7,0.8-8.7,1.6-10,2h0c-0.4,0.1-0.9,0.4-1.5,0.6c-0.6,0.3-1.2,0.6-1.8,1c-3.2,1.8-7,4.7-7.3,7.3v0
		c-0.1,0.6-0.1,1.3-0.1,2.2c0,0.9,0,1.9,0.1,3c0.3,5.5,1.3,12.6,2.2,14.1c0.9,1.5,2.2,2.5,2.9,3.1l37.6-7.4l0.4-3.4
		C324.8,350.7,324.9,350.5,324.9,350.3 M334.4,330.9c-0.6,8.2-5.8,19-6.6,20.7l-0.5,4.1c-0.1,0.7-0.6,1.3-1.3,1.4l-39.3,7.8
		c-0.4,0.1-0.8,0-1.1-0.2c0,0-2.7-1.7-4.4-4.4c-1.2-1.9-2.4-9.7-2.7-15.6c-0.1-1.1-0.1-2.2-0.1-3.2c0-1,0-1.9,0.1-2.5v0
		c0.5-3.8,5-7.4,8.8-9.6c0.7-0.4,1.5-0.8,2-1.1c0.6-0.3,1.2-0.6,1.8-0.7c1.5-0.6,5.7-1.3,10.5-2.2c6.6-1.2,14.4-2.6,17.1-3.8l0.1,0
		v0c4.3-1.9,10.7-8,11.4-8.6c0.2-0.2,0.4-0.3,0.7-0.4c0.8-0.2,1.7,0.3,1.9,1.1C332.9,313.7,335,322,334.4,330.9"/>
	<path id="XMLID_124_" class="st4" d="M22.2,348c0,0,43.5,2.9,71.3,26c27.9,23,61.4,46.2,84.1,45.6c18.6-0.5,50.8-18.6,67.9-32.9
		c17.1-14.2,36.2-28.9,51.3-32.8c15.1-3.9,28.3-2.4,28.3-2.4s4.4,6.4,2.9,15.7c-1.5,9.3-4.9,17.6-7.8,20.6
		c-2.9,2.9-15.6,1.5-26.4,7.9c-10.8,6.4-32.3,22-44.5,33.3c-12.2,11.3-34.9,25.9-73.2,26.2c-41.6,0.3-78.5-28.6-90.5-38.4
		c-16.1-13.2-35.2-23.5-44.5-27c-9.3-3.4-13.2-2.5-16.1-6.9c-2.9-4.4-6.9-22-4.9-28.4L22.2,348z"/>
	<path id="XMLID_121_" class="st5" d="M22.3,346.4c0.1,0,44,3,72.2,26.3c13.9,11.5,29.1,23,43.8,31.5c14.5,8.5,28.2,14,39.3,13.7
		h0.1c2.5-0.1,5.3-0.5,8.2-1.2c3-0.7,6.2-1.7,9.5-2.9c17.1-6.2,37-18.3,49.2-28.5c8.6-7.1,17.7-14.4,26.5-20.3
		c8.9-6,17.6-10.8,25.4-12.8c15.4-4,28.8-2.5,28.9-2.5c0.5,0.1,0.9,0.3,1.1,0.7c0.3,0.4,4.7,7.2,3.2,16.8c-0.2,1.4-0.5,2.7-0.7,3.9
		c-0.3,1.3-0.6,2.5-0.9,3.7c-1.8,6.3-4.3,11.5-6.6,13.8h0c0,0-0.1,0.1-0.1,0.1c-1.6,1.5-4.7,2-8.8,2.6c-5.1,0.8-11.8,1.8-17.8,5.4
		c-1.5,0.9-3.2,1.9-5,3.1c-1.9,1.2-3.9,2.6-6,4c-10.9,7.5-24.4,17.9-33.2,25.9c-6.2,5.7-15.1,12.3-27.3,17.5
		c-12.2,5.2-27.6,8.9-47,9.1c-21.1,0.1-41-7.1-57.1-15.6c-16.1-8.5-28.4-18.2-34.4-23.2h0c-2.3-1.9-4.5-3.6-6.8-5.3
		c-2.3-1.7-4.7-3.4-7-4.9c-12-8-23.6-14-30.2-16.5c-3.2-1.2-5.7-1.8-7.8-2.3c-4.3-1.1-6.8-1.8-9-5.1h0c-0.5-0.7-0.9-1.7-1.4-2.8
		c-0.4-1.1-0.9-2.5-1.3-3.9c-2.2-7.3-3.8-18.1-2.3-23l2-6.4C20.9,346.8,21.6,346.4,22.3,346.4L22.3,346.4z M92.5,375.2
		c-24.8-20.5-62.1-24.9-69.3-25.5l-1.6,5.2c-1.3,4.3,0.3,14.3,2.3,21.2c0.4,1.3,0.8,2.6,1.2,3.6c0.4,1,0.7,1.7,1.1,2.2l0,0
		c1.6,2.4,3.7,2.9,7.3,3.8c2.2,0.5,4.8,1.2,8.1,2.4c6.8,2.5,18.7,8.6,30.8,16.8c2.4,1.6,4.8,3.3,7.1,5c2.4,1.8,4.7,3.6,7,5.4
		c5.9,4.9,18.1,14.5,33.9,22.8c15.7,8.3,35.1,15.4,55.6,15.3c18.9-0.1,34-3.8,45.8-8.9c11.8-5,20.4-11.4,26.4-16.9
		c8.8-8.2,22.5-18.6,33.5-26.2c2.1-1.5,4.2-2.8,6.1-4.1c1.9-1.2,3.6-2.3,5.2-3.2c6.5-3.8,13.5-4.9,18.9-5.8c3.5-0.5,6.2-1,7.1-1.8
		l0.1,0v0l0,0v0c1.9-1.9,4.1-6.6,5.8-12.4c0.3-1.1,0.6-2.3,0.9-3.6c0.3-1.3,0.5-2.5,0.7-3.7v0c1.1-7.1-1.3-12.3-2.3-14
		c-2.9-0.2-14.3-0.8-27.1,2.5c-7.4,1.9-15.8,6.5-24.4,12.3c-8.7,5.9-17.8,13.1-26.3,20.2c-12.4,10.3-32.7,22.6-50.1,29
		c-3.4,1.2-6.7,2.3-9.8,3c-3.1,0.7-6.1,1.2-8.8,1.2h-0.1c-11.7,0.3-26-5.4-40.9-14.1C122,398.3,106.5,386.7,92.5,375.2"/>
	<path id="XMLID_120_" class="st6" d="M109.9,181.3c-0.3-0.5-0.1-1.1,0.4-1.4c0.5-0.3,1.1-0.1,1.4,0.4l19.8,34.8
		c0.3,0.5,0.1,1.2-0.4,1.4c-0.5,0.3-1.1,0.1-1.4-0.4L109.9,181.3z"/>
	<path id="XMLID_119_" class="st6" d="M110.5,216.9c-0.3,0.5-0.9,0.7-1.4,0.4c-0.5-0.3-0.7-0.9-0.4-1.4l19.8-34.9
		c0.3-0.5,0.9-0.7,1.4-0.4c0.5,0.3,0.7,0.9,0.4,1.4L110.5,216.9z"/>
	<path id="XMLID_118_" class="st7" d="M113.1,200c0-10.7,3.1-19.4,6.8-19.4c3.8,0,6.9,8.6,6.9,19.4c0,10.7-3.1,19.4-6.9,19.4
		C116.1,219.4,113.1,210.7,113.1,200"/>
	<path id="XMLID_33_" class="st4" d="M113.2,202.4c0,0,4.5,0.8,6.7,0.8c2.2-0.1,6.7-1.1,6.7-1.1s0.1,0.8,0,1.7
		c-0.1,0.9-0.3,2.5-0.3,2.5s-5.5,1-6.6,1c-1.1,0-6.3-0.6-6.3-0.6L113.2,202.4z M113.8,209.2c0,0.4,0.9,3.8,1.1,4.1
		c0.1,0.3,4.2,0.6,5.1,0.6c0.8,0.1,4.6-0.1,5-0.8c0.4-0.7,1-3.9,1-3.9s-3.8,0.8-6,0.9C117.8,210.2,113.8,209.2,113.8,209.2
		 M115.6,215.4c0,0.2,0.9,1.7,1.3,2.1c0.4,0.4,1.9,0.5,2.5,0.5c0.6,0,2.9,0.1,3.3-0.2c0.3-0.3,1.5-2.4,1.5-2.4
		c-0.2,0.3-2.8,0.5-3.8,0.7c-1,0.2-4.6-0.7-4.6-0.7L115.6,215.4z M116,187.9h7.6c0,0-0.1-0.6-0.3-1.5c-0.3-1-0.4-1.5-1.6-2.8
		c-1.2-1.2-2.3-0.6-3.5,0.1c-1.2,0.7-2.1,3.8-2.1,3.8L116,187.9z"/>
	<path id="XMLID_112_" class="st2" d="M143.6,204c-0.9,3.2-12.2,2.7-25.3-0.9c-13.1-3.7-23-9.2-22.1-12.4s12.2-2.7,25.3,0.9
		C134.6,195.3,144.5,200.8,143.6,204"/>
	<path id="XMLID_111_" class="st2" d="M144.8,190.6c-0.4-3.1-11.8-2.4-25.5,1.6c-13.6,4.1-24.3,9.8-23.9,13
		c0.4,3.1,11.8,2.4,25.5-1.6C134.6,199.6,145.3,193.8,144.8,190.6"/>
	<path id="XMLID_108_" class="st6" d="M112.5,200L112.5,200c0-5.4,0.8-10.3,2-13.9c1.3-3.7,3.2-6,5.3-6c2.1,0,4,2.3,5.3,6
		c1.3,3.5,2,8.4,2,13.9c0,5.4-0.8,10.3-2,13.9c-1.3,3.7-3.2,6-5.3,6c-0.7,0-1.5-0.3-2.1-0.8c-0.5-0.4-1-1-1.5-1.6
		C114.1,214.1,112.5,207.6,112.5,200 M113.6,200L113.6,200c0,7.4,1.5,13.7,3.6,16.9c0.4,0.6,0.8,1,1.3,1.4c0.5,0.4,1,0.6,1.5,0.6v0
		v0c1.7,0,3.2-2.1,4.4-5.3c1.2-3.5,2-8.2,2-13.5c0-5.3-0.7-10.1-2-13.5c-1.2-3.3-2.7-5.3-4.4-5.3c-1.6,0-3.2,2-4.3,5.3
		C114.3,189.9,113.6,194.7,113.6,200"/>
	<path id="XMLID_107_" class="st6" d="M222.1,181.3c-0.3-0.5-0.1-1.1,0.4-1.4c0.5-0.3,1.1-0.1,1.4,0.4l19.8,34.8
		c0.3,0.5,0.1,1.2-0.4,1.4c-0.5,0.3-1.1,0.1-1.4-0.4L222.1,181.3z"/>
	<path id="XMLID_106_" class="st6" d="M222.7,216.9c-0.3,0.5-0.9,0.7-1.4,0.4c-0.5-0.3-0.7-0.9-0.4-1.4l19.8-34.9
		c0.3-0.5,0.9-0.7,1.4-0.4c0.5,0.3,0.7,0.9,0.4,1.4L222.7,216.9z"/>
	<path id="XMLID_105_" class="st2" d="M225.3,200c0-10.7,3.1-19.4,6.8-19.4c3.8,0,6.9,8.6,6.9,19.4c0,10.7-3.1,19.4-6.9,19.4
		C228.3,219.4,225.3,210.7,225.3,200"/>
	<path id="XMLID_28_" class="st4" d="M225.4,202.4c0,0,4.5,0.8,6.7,0.8c2.2-0.1,6.7-1.1,6.7-1.1s0.1,0.8,0,1.7
		c-0.1,0.9-0.3,2.5-0.3,2.5s-5.5,1-6.6,1c-1.1,0-6.3-0.6-6.3-0.6L225.4,202.4z M232.1,210c-2.2,0.1-6.1-0.9-6.1-0.9
		c0.1,0.4,0.9,3.8,1.1,4.1c0.1,0.3,4.3,0.6,5.1,0.6c0.8,0.1,4.7-0.1,5-0.8c0.3-0.7,0.9-3.9,0.9-3.9 M227.8,215.4
		c0,0.2,0.9,1.7,1.3,2.1c0.4,0.4,1.9,0.5,2.5,0.5c0.6,0,2.9,0.1,3.3-0.2c0.3-0.3,1.5-2.4,1.5-2.4c-0.2,0.3-2.8,0.5-3.8,0.7
		c-1,0.2-4.6-0.7-4.6-0.7L227.8,215.4z M228.2,187.9h7.6c0,0-0.1-0.6-0.3-1.5c-0.2-1-0.4-1.5-1.6-2.8c-1.2-1.2-2.3-0.6-3.5,0.1
		c-1.2,0.7-2.1,3.8-2.1,3.8L228.2,187.9z"/>
	<path id="XMLID_99_" class="st2" d="M255.8,204c-0.9,3.2-12.2,2.7-25.3-0.9c-13.1-3.7-23-9.2-22.1-12.4c0.9-3.1,12.2-2.7,25.3,0.9
		C246.8,195.3,256.7,200.8,255.8,204"/>
	<path id="XMLID_98_" class="st2" d="M257,190.6c-0.4-3.1-11.8-2.4-25.5,1.6c-13.7,4.1-24.4,9.8-23.9,13c0.4,3.1,11.8,2.4,25.5-1.6
		C246.8,199.6,257.5,193.8,257,190.6"/>
	<path id="XMLID_95_" class="st8" d="M224.7,200L224.7,200c0-5.4,0.8-10.3,2-13.9c1.3-3.7,3.2-6,5.3-6c2.1,0,4,2.3,5.3,6
		c1.3,3.5,2,8.4,2,13.9c0,5.4-0.8,10.3-2,13.9c-1.3,3.7-3.2,6-5.3,6c-0.7,0-1.5-0.3-2.1-0.8c-0.5-0.4-1-1-1.5-1.6
		C226.3,214.1,224.7,207.6,224.7,200 M225.8,200L225.8,200c0,7.4,1.5,13.7,3.6,16.9c0.4,0.6,0.8,1,1.2,1.4c0.5,0.4,1,0.6,1.5,0.6v0
		v0c1.7,0,3.2-2.1,4.4-5.3c1.2-3.5,2-8.2,2-13.5c0-5.3-0.7-10.1-2-13.5c-1.2-3.3-2.7-5.3-4.4-5.3c-1.6,0-3.2,2-4.3,5.3
		C226.5,189.9,225.8,194.7,225.8,200"/>
	<path id="XMLID_94_" class="st2" d="M170.5,66c0,0,0.4,2.8,0,4.8c-0.4,2-0.8,2.7-0.8,2.7s3-1.5,4.5-1.9c1.5-0.4,3.8-0.8,4.7-1.1
		c0.8-0.3-4.8,2.3-6.7,3.4c-1.9,1.1-4,2.3-4.8,3.6c-0.8,1.2-3.8,5.2-3.8,6.6c0,1.4,1.7,2.9,1.4,4.9c-0.3,2.1-1,3.2-1.4,3.6
		c-0.4,0.4-0.6-0.3-0.7-2.1c-0.1-1.8-0.4-2.5-0.4-2.5s-0.8,0.7-1.2,1.6c-0.4,1-0.6,1.9-1.8,3.4c-1.2,1.5-2.3,2.4-2.3,2.4
		s0.4-6.5,1.8-8.1c1.4-1.6,2.2-3,2.2-3s1.5-3.7,1.4-5.8c-0.1-2.1,0.7-6.2,2.2-8.1C166.1,68.7,169.2,66.6,170.5,66"/>
	<path id="XMLID_93_" class="st9" d="M170.5,66c0,0,0.4,2.8,0,4.8c-0.4,2-0.8,2.7-0.8,2.7s3-1.5,4.5-1.9c1.5-0.4,3.8-0.8,4.7-1.1
		c0.8-0.3-4.8,2.3-6.7,3.4c-1.9,1.1-4,2.3-4.8,3.6c-0.8,1.2-3.8,5.2-3.8,6.6c0,1.4,1.7,2.9,1.4,4.9c-0.3,2.1-1,3.2-1.4,3.6
		c-0.4,0.4-0.6-0.3-0.7-2.1c-0.1-1.8-0.4-2.5-0.4-2.5s-0.8,0.7-1.2,1.6c-0.4,1-0.6,1.9-1.8,3.4c-1.2,1.5-2.3,2.4-2.3,2.4
		s0.4-6.5,1.8-8.1c1.4-1.6,2.2-3,2.2-3s1.5-3.7,1.4-5.8c-0.1-2.1,0.7-6.2,2.2-8.1C166.1,68.7,169.2,66.6,170.5,66z"/>
	<path id="XMLID_92_" class="st7" d="M197.7,123.3c0.8-0.1,1.8-0.3,1.8-0.3l-1-1.4c0,0,3.2,1.6,3.6,1.8c0.4,0.1,0.8-0.4,0.8-0.4
		s0.5,0.4,1.2,0.6c0.7,0.1,1.4-0.8,2.1-1.6c0.7-0.9,1.5-1.7,0.1-1.9c-1.4-0.3-2-0.7-3.2-1.1c-1.1-0.4-1.4-1-1.4-1l1.6-0.3
		c0,0-4.2-3-5.4-4.8c-1.1-1.8-3.7-4.8-6.6-7c-2.9-2.2-5.8-4.6-8.2-5.1c-2.5-0.5-4-1-4-1s0.1-5.4,0.7-7.4c0.5-2.1,2.6-7,2.6-8.4
		c0-1.4,0.3-3.4-1.6-5.4c-1.9-1.9-3.6-2.6-5.7-2.6c-2,0-4.4,1.4-6,2.1c-1.5,0.7-2.4,1.6-4.1,2.4c-1.7,0.8-2.3,1.1-2.8,1.5
		c-0.4,0.4-0.2,0.6-0.2,0.6l0.6,0.2c0,0,1.7-0.6,3.2-0.8c1.5-0.3,2.8,0.7,4.6,1.9c1.8,1.1,2.5,2,2.5,4.1c0,2.1-1.9,6.1-3.2,8.1
		c-1.2,2.1-3.3,4.1-3.7,6.3c-0.4,2.2-1.1,4.4-0.8,6.7c0.3,2.3,1.8,5.8,3.6,7.8c0,0,1.9,3.1,3.3,3.9c1.4,0.8,4.8,0.5,5.7,0.5
		c0.9,0,1.4,1,3.8,2.3c2.8,1.9,8.3,3.5,9,2.6c1-0.4,1.5-1.2,3.2-1.7C195.8,123.9,197.7,123.3,197.7,123.3"/>
	<path id="XMLID_91_" class="st9" d="M197.7,123.3c0.8-0.1,1.8-0.3,1.8-0.3l-1-1.4c0,0,3.2,1.6,3.6,1.8c0.4,0.1,0.8-0.4,0.8-0.4
		s0.5,0.4,1.2,0.6c0.7,0.1,1.4-0.8,2.1-1.6c0.7-0.9,1.5-1.7,0.1-1.9c-1.4-0.3-2-0.7-3.2-1.1c-1.1-0.4-1.4-1-1.4-1l1.6-0.3
		c0,0-4.2-3-5.4-4.8c-1.1-1.8-3.7-4.8-6.6-7c-2.9-2.2-5.8-4.6-8.2-5.1c-2.5-0.5-4-1-4-1s0.1-5.4,0.7-7.4c0.5-2.1,2.6-7,2.6-8.4
		c0-1.4,0.3-3.4-1.6-5.4c-1.9-1.9-3.6-2.6-5.7-2.6c-2,0-4.4,1.4-6,2.1c-1.5,0.7-2.4,1.6-4.1,2.4c-1.7,0.8-2.3,1.1-2.8,1.5
		c-0.4,0.4-0.2,0.6-0.2,0.6l0.6,0.2c0,0,1.7-0.6,3.2-0.8c1.5-0.3,2.8,0.7,4.6,1.9c1.8,1.1,2.5,2,2.5,4.1c0,2.1-1.9,6.1-3.2,8.1
		c-1.2,2.1-3.3,4.1-3.7,6.3c-0.4,2.2-1.1,4.4-0.8,6.7c0.3,2.3,1.8,5.8,3.6,7.8c0,0,1.9,3.1,3.3,3.9c1.4,0.8,4.8,0.5,5.7,0.5
		c0.9,0,1.4,1,3.8,2.3c2.8,1.9,8.3,3.5,9,2.6c1-0.4,1.5-1.2,3.2-1.7C195.8,123.9,197.7,123.3,197.7,123.3z"/>
	<path id="XMLID_90_" class="st3" d="M168.4,78c-1.7,0.8-2.1,1.2-3.9,2.2c-1.8,0.9-2.9,2.2-3.5,2.6c-0.6,0.5-0.6,1-0.6,1l0.6-0.3
		c0,0,2.9-0.7,4.6-1c1.7-0.3,3,0.1,5,1.3c0,0-1.6-2.7-1.8-4.1C168.4,78.3,168.4,78,168.4,78"/>
	<path id="XMLID_89_" class="st10" d="M175.2,103.4c0,0,0.1,4.9,1.6,7.6v0c0.2,0.4,0.4,0.8,0.7,1.2c0.3,0.4,0.6,0.8,0.9,1.2
		c1.8,2,4.1,3.7,5.5,4.1c0.4,0.1,0.8,0.2,1.1,0.3l-0.3-0.4l0.7-0.7c0,0,1.3,1.2,2.6,1.4l0.2,0l-0.6-0.9h0l0.9-0.5h0l0,0l0.1,0.1
		c0.3,0.5,1.3,1.8,1.7,1.5c0.9-0.6,1.1-1,1.1-1l0.9,0.5c0,0-0.3,0.6-1.5,1.3c-0.2,0.1-0.4,0.2-0.6,0.2l0.1,0.2l-1.2-0.2l-1.4-0.3
		c-0.1,0-0.3-0.1-0.4-0.1l0.1,0.1h-1.1c0,0-0.6,0-2.7-0.7c-1.5-0.5-4.1-2.3-5.9-4.4c-0.4-0.4-0.7-0.8-1-1.2
		c-0.3-0.4-0.6-0.9-0.8-1.3c-1.6-3-1.7-8.1-1.7-8.1L175.2,103.4z"/>
	<path id="XMLID_88_" class="st11" d="M172.9,78.2c0,0,0.6-0.5,1.4-0.5c0.8,0,1.9,0.5,1.9,0.5s-0.7,0.6-1.4,0.8
		C174.1,79.1,172.9,78.2,172.9,78.2"/>
	<path id="XMLID_87_" class="st3" d="M172.6,120.5c0,0,1.7,1.5,2.3,2.6c0.6,1.2,1.8,3.1,1.9,3.5c0.1,0.5,0.2,0.7-0.2,0.7
		c-0.4,0-1.9-0.1-3.8-0.4c-1.9-0.3-4.8-2.1-5.3-2.6c-0.6-0.5-2.3-1.5-3.8-1.7c-1.5-0.1-2.4-0.1-2.4-0.1s3.6,3.9,4.5,4.6
		c0.9,0.8,3.2,2.8,5.2,3.7c2,0.9,4.1,2.9,6.6,3.2c2.6,0.3,2.8,0.6,3.8-0.5c1-1,1.9-2.6,1.9-2.6s0.4,0.3,0.3,2.1
		c-0.1,1.8-1.3,4.6-1.5,5.4c-0.3,0.7-2.1,4.8-2.4,5.6c-0.4,0.8-0.9,1.4-0.9,1.4s0.3,0.5,1.3,0.5h2.5c1.5,0,2.1-0.3,2.1-0.3
		s-0.3-1.2,0.4-3.2c0.7-2,4.4-6.7,5.1-7.2c0.7-0.5,2.8-2.2,2.8-2.4c0-0.3-0.4-1.4-0.6-2.5c-0.2-1.1-0.8-3.8-0.8-3.8s0.4-0.3-1.9-0.4
		c-2.3-0.1-2.9-0.5-5.8-1.8c-4.8-3.3-5.7-3.3-5.7-3.3s-1.9,0.1-2.7,0C174.8,120.8,172.6,120.5,172.6,120.5"/>
	<path id="XMLID_86_" class="st2" d="M166.6,126.4c1,3.3-2.1,7.3-7.1,8.9c-5,1.6-9.8,0.2-10.9-3.2s2.1-7.3,7.1-8.9
		C160.7,121.6,165.6,123.1,166.6,126.4"/>
	<path id="XMLID_85_" class="st9" d="M166.6,126.4c1,3.3-2.1,7.3-7.1,8.9c-5,1.6-9.8,0.2-10.9-3.2s2.1-7.3,7.1-8.9
		C160.7,121.6,165.6,123.1,166.6,126.4z"/>
	<path id="XMLID_84_" class="st12" d="M130.8,155.2c0,0-1.5-1.5,2-3.1c3.4-1.5,5.8-1.6,6.5-2.3c0.7-0.7,1.5-5.8,1.5-5.4
		c0,0.5,7.2,4.7,7.2,4.7l6.7-6.2l8.9,4.7c0,0,1.6-0.6,2.2-1.1c0.5-0.5,1.2-6.5,1.2-6.5s5.3,6.4,6,5.7c0.7-0.7,4.1-5.3,4.1-5.3
		s0.4,4.6,0.7,4.2c0.4-0.4,2.4-2,2.4-2l1.2,2l4.1-3.6l2.2,3.9l9.9-3.2c0,0,2.4,3.9,4.7,4.7c2.3,0.9,5.1-0.4,5.1-0.4l1.6-1.4
		c0,0,2.9,4.8,4.7,5.8c1.8,1,3.9,4,3.9,4L130.8,155.2z"/>
	<path id="XMLID_83_" class="st3" d="M225.9,150.2L225.9,150.2l-101.1-0.1c-4.6,0-8.3,3.7-8.3,8.3c0,4.6,3.7,8.3,8.3,8.3v0.1h101.1
		c4.6,0,8.3-3.8,8.3-8.3C234.2,153.9,230.5,150.2,225.9,150.2"/>
	<path id="XMLID_4_" class="st1" d="M175.1,164.5v2.1c-4.2,0.2-6.5-4.8-10.2-1.9l1.1,1.4c-5.4,1.2-7.7-4.1-11.4-6.2
		c-0.9-2.8-6-3.7-6-7.1c2.6-2.8,7.7-2,11.1-1.6C166.6,154.3,171.4,159.2,175.1,164.5 M212.1,164c-9.1-3.9-11.8-13.4-25-12
		c-2.4,0.7-7.1-0.2-6.1,2.8c2.4,3,7.4,4.2,8.4,7.6c4.1,1.2,4.7,5.5,10.5,4.1c0-3.2-8.8-3.9-3.7-7.6c6.1,2.3,8.4,6,15.9,7.6V164
		 M139.9,159.9c-4.9-1.6-4.6-8.3-12.6-6.7c-3.5,3-3.5,5.8-2.5,9.5c2.8,0.9,3.9,4.8,8.1,3v-1.2c-1.4-0.9-4.2-0.9-3.2-3
		c7.4-3.7,6,5.3,14,4.6C147,163.8,140.7,162.2,139.9,159.9 M226.1,156.2c-0.7-1.6-4.1-5.1-4.6-1.4c0.9,1.8,2.3,4.6,4.6,3.5V156.2
		 M39.8,378.8l8.4,3.4c2.6,1,5.8,0.5,7-2.5c0.9-2.2,0-3.8-1.1-4.7c1.3-0.2,2.4-0.7,3-2.2c0.6-1.5,0.6-4.1-3.3-5.6l-8.1-3.2
		L39.8,378.8z M46.8,374.3l2.9,1.1c1.1,0.4,1.4,1.1,1,2c-0.4,1.2-1.4,1.1-2.3,0.7l-2.7-1.1L46.8,374.3z M48.8,369.3l2.4,0.9
		c0.9,0.4,1.5,0.9,1.2,1.7c-0.4,1-1.1,1-2,0.6l-2.4-1L48.8,369.3z M73.8,376l-4.5-2.1l-3.7,7.9c-0.7,1.5-1.5,3.4-3.6,2.4
		c-2.2-1-1.3-2.9-0.6-4.3l3.7-7.9l-4.4-2.1l-4.2,8.9c-1.9,4-0.6,7,3.8,9c4.4,2,7.5,1.1,9.3-2.9L73.8,376z M68,391l4.3,2.5l2.8-4.8
		l2.2,1.3c1.7,1,1,2.4,0.4,3.8c-0.3,0.7-0.7,1.5-0.9,2.3l4.3,2.5c0-0.9,0.9-2.6,1.2-3.3c0.8-1.8,0.9-3.5,0-4.6
		c1.7,0.3,3.2-0.8,4.1-2.3c1.5-2.6,0.2-5.1-2.2-6.6l-8.1-4.7L68,391z M78.4,382.9l2,1.2c1.6,0.9,1.8,1.7,1.3,2.6
		c-0.7,1.2-1.9,0.7-2.7,0.3l-2.2-1.3L78.4,382.9z M81.4,398.6l3.6,2.9l5.5-6.8l0,0l-1.7,9.9l3.7,3l10.1-12.4l-3.6-2.9l-5.4,6.7l0,0
		l1.8-9.6l-3.9-3.2L81.4,398.6z M94.1,409.1l9.5,7.3l2.5-3.3l-5.6-4.3l7.3-9.4l-3.9-3L94.1,409.1z M104.9,417.4l11.1,7.6l2.3-3.4
		l-7.1-4.8l1.1-1.6l6.3,4.2l2.1-3.2l-6.3-4.2l1.1-1.6l6.9,4.7l2.3-3.4l-10.9-7.4L104.9,417.4z M120.9,427.8l4.3,2.4l2.9-5.2l9.9-6
		l-4.7-2.6l-5.3,3.8l0.5-6.4l-4.7-2.6v11.5L120.9,427.8z M137.1,435.9l4.6,1.6l2-5.7l6,2.1l1.3-3.6l-6-2.1l0.7-1.9l7,2.5l1.4-3.9
		l-11.6-4.1L137.1,435.9z M161.4,426.1c-4.8-0.9-8.6,1.9-9.6,6.7c-0.9,4.8,1.6,8.8,6.3,9.8c4.8,0.9,8.6-1.9,9.6-6.7
		C168.7,431.1,166.2,427.1,161.4,426.1 M159,438.6c-1.2-0.2-2.9-1.4-2.3-4.9c0.7-3.5,2.7-3.9,4-3.7c1.2,0.2,2.9,1.4,2.3,4.9
		C162.2,438.4,160.2,438.9,159,438.6 M176.8,427.7c-4.8-0.1-8.2,3.4-8.2,8.2c-0.1,4.9,3.1,8.5,7.9,8.5c4.8,0.1,8.1-3.4,8.2-8.2
		C184.8,431.4,181.7,427.9,176.8,427.7 M176.6,440.5c-1.3,0-3.2-0.9-3.1-4.4c0.1-3.6,2-4.4,3.3-4.3c1.2,0,3.1,0.9,3.1,4.4
		C179.8,439.8,177.8,440.6,176.6,440.5 M191.1,443.3l4.8-0.8l-2-11.7l4.4-0.7l-0.7-4l-13.7,2.3l0.7,4l4.4-0.7L191.1,443.3z
		 M203.6,440.9l8.5-3c2.7-1,4.7-3.5,3.6-6.5c-0.8-2.2-2.5-2.8-3.9-2.8c0.9-1,1.3-2.1,0.8-3.6c-0.5-1.5-2.2-3.5-6.1-2l-8.2,2.9
		L203.6,440.9z M204.2,427.8l2.4-0.9c1-0.3,1.7-0.3,2,0.5c0.3,1-0.2,1.5-1.1,1.8L205,430L204.2,427.8z M206,432.9l2.9-1
		c1.1-0.4,1.8-0.1,2.1,0.8c0.4,1.2-0.3,1.7-1.3,2.1l-2.7,1L206,432.9z M217.4,436l4.4-2.3l-0.4-2.4l4.5-2.3l1.6,1.7l4.5-2.4
		l-12.6-11.4l-4.2,2.2L217.4,436z M220.7,427.8l-0.9-5.1h0l3.6,3.7L220.7,427.8z M232.7,427.7l10-6.6l-2.3-3.4l-5.9,3.9l-6.6-9.9
		l-4.1,2.7L232.7,427.7z M244,420.1l9.6-7.2l-2.5-3.3l-5.6,4.3l-7.1-9.5l-3.9,2.9L244,420.1z M264.7,391.2c-2.8-2.8-6.1-3.2-9.6-0.4
		c-3.9,3-4.3,7.6-1.1,11.6c2.9,3.7,7.5,4.8,11.5,1.5c3.6-2.9,3.6-7.2,1.6-9.7l-3.8,3c0.7,1.3,0.9,2.7-0.4,3.7
		c-1.8,1.4-3.8,0.1-5.1-1.6c-1.3-1.7-2.2-3.9-0.4-5.3c1.6-1.3,3-0.2,3.5,0.2L264.7,391.2z M271.7,398.4l9.5-7.3l-2.5-3.3l-5.6,4.3
		l-7.2-9.5l-3.9,3L271.7,398.4z M285.8,369.5l-4.2,2.5l4.5,7.5c0.8,1.4,1.9,3.2-0.1,4.3c-2,1.2-3.1-0.5-3.9-1.9l-4.5-7.5l-4.2,2.5
		l5,8.4c2.2,3.8,5.4,4.4,9.6,1.9c4.2-2.5,5.1-5.5,2.9-9.3L285.8,369.5z M294.7,383l8.5-3.1c2.6-1,4.7-3.5,3.6-6.5
		c-0.8-2.2-2.5-2.8-3.9-2.8c0.9-1,1.3-2.1,0.8-3.6c-0.6-1.5-2.2-3.5-6.1-2.1l-8.2,3L294.7,383z M295.2,369.9l2.4-0.9
		c0.9-0.3,1.7-0.3,1.9,0.5c0.4,1-0.2,1.5-1.1,1.8l-2.4,0.9L295.2,369.9z M297,375l2.9-1c1.1-0.4,1.8-0.1,2.1,0.8
		c0.4,1.2-0.3,1.7-1.3,2.1l-2.7,1L297,375z"/>
	<path id="XMLID_46_" class="st13" d="M130.9,379.2c-29.8-18.5-45.9-42-47.6-70c-0.3-4.8-0.4-21.7-0.4-42.3c0-35.5,0-81.4,0.1-93.7
		l185.2,0l0,136.3c-1.5,28-18.2,51.2-48.2,69.7c-20.4,12.6-40.7,18.4-44.7,19.4C171.4,397.6,151.3,391.8,130.9,379.2 M77,169.9
		c0,5.1-0.9,125.1,0,139.7c1.9,29.7,19.4,55.6,50.7,75c23.4,14.4,45.9,20.1,46.8,20.4l0.7,0.2l0.8-0.2c1-0.2,23.6-5.8,47.1-20.3
		c31.5-19.3,48.9-45.3,50.5-75.1c1.2-23,1.6-138.1,1.6-139.3v-3.2L77,166.8L77,169.9z"/>
</g>
<g id="XMLID_2_">
	<defs>
		<path id="XMLID_43_" d="M-40.3,289.3c0.8,54.3,23.1,106.5,64.8,151.3c39,42,92.1,73.7,149.5,89.4l1.3,0.3l1.3-0.2
			c15.7-2.2,62.8-18.2,108.6-53.4c40.9-31.4,91.7-87.3,101.9-175.3l0-68.7c-4.3,1.3-8.7,2.5-13.1,3.7v63.9
			c-18,154-167.3,211.3-197.9,216.7C74.8,488.8-27.2,400.8-27.2,286.4V236c-4.4-1.2-8.8-2.5-13.1-3.8V289.3z"/>
	</defs>
	<clipPath id="XMLID_45_">
		<use xlink:href="#XMLID_43_"  style="overflow:visible;"/>
	</clipPath>
	
		<linearGradient id="XMLID_49_" gradientUnits="userSpaceOnUse" x1="-271.1308" y1="560.0323" x2="-249.787" y2="560.0323" gradientTransform="matrix(-10.3167 -14.2343 -14.2343 10.3167 5486.1787 -9065.0908)">
		<stop  offset="0" style="stop-color:#040000"/>
		<stop  offset="5.484474e-002" style="stop-color:#1C1702"/>
		<stop  offset="0.2005" style="stop-color:#564F07"/>
		<stop  offset="0.3463" style="stop-color:#887F0B"/>
		<stop  offset="0.4889" style="stop-color:#B0A70E"/>
		<stop  offset="0.6275" style="stop-color:#D0C511"/>
		<stop  offset="0.7613" style="stop-color:#E7DB13"/>
		<stop  offset="0.8879" style="stop-color:#F4E914"/>
		<stop  offset="1" style="stop-color:#F9ED14"/>
	</linearGradient>
	<polygon id="XMLID_44_" class="st14" points="106.9,733.4 -181.9,334.9 239.9,29.1 528.8,427.6 	"/>
</g>
<g id="XMLID_1_">
	<defs>
		<path id="XMLID_40_" d="M-40.3,30.3v201.8c4.3,1.3,8.7,2.6,13.1,3.8V43.4H374v193c4.4-1.2,8.8-2.4,13.1-3.7l0-202.3H-40.3z"/>
	</defs>
	<clipPath id="XMLID_50_">
		<use xlink:href="#XMLID_40_"  style="overflow:visible;"/>
	</clipPath>
	
		<linearGradient id="XMLID_53_" gradientUnits="userSpaceOnUse" x1="-271.1312" y1="552.011" x2="-249.7874" y2="552.011" gradientTransform="matrix(-10.3167 -14.2343 -14.2343 10.3167 5489.8037 -9067.7002)">
		<stop  offset="0" style="stop-color:#040000"/>
		<stop  offset="5.484474e-002" style="stop-color:#1C1702"/>
		<stop  offset="0.2005" style="stop-color:#564F07"/>
		<stop  offset="0.3463" style="stop-color:#887F0B"/>
		<stop  offset="0.4889" style="stop-color:#B0A70E"/>
		<stop  offset="0.6275" style="stop-color:#D0C511"/>
		<stop  offset="0.7613" style="stop-color:#E7DB13"/>
		<stop  offset="0.8879" style="stop-color:#F4E914"/>
		<stop  offset="1" style="stop-color:#F9ED14"/>
	</linearGradient>
	<polygon id="XMLID_41_" class="st15" points="106.9,439.5 -138.2,101.3 240,-172.8 485.1,165.4 	"/>
</g>
</svg>
