<?xml version="1.0" encoding="utf-8"?>
<!-- Generator: Adobe Illustrator 25.1.0, SVG Export Plug-In . SVG Version: 6.00 Build 0)  -->
<svg version="1.1" xmlns="http://www.w3.org/2000/svg" xmlns:xlink="http://www.w3.org/1999/xlink" x="0px" y="0px"
	 viewBox="0 0 48 48" style="enable-background:new 0 0 48 48;" xml:space="preserve">
<style type="text/css">
	.st0{display:none;}
	.st1{display:inline;}
	.st2{fill-rule:evenodd;clip-rule:evenodd;fill:#FFFFFF;}
	.st3{fill:#FFFFFF;}
</style>
<g id="Layer_2" class="st0">
	<g class="st1">
		<path class="st2" d="M24.2,22.2c3.7,1,6.4,1.5,6.4,1.5c-1.6-1.6-3-3.2-4.2-4.7c2.1-3,3.8-5.1,3.8-5.1c-2.3,0.5-4.4,1.1-6.3,1.7
			C22,13,21,11.2,21,11.2c-0.5,2-0.8,3.9-0.9,5.8c-3,1.2-4.9,2.1-4.9,2.1c1.6,0.7,3.3,1.4,5,1.9c0.3,3.5,1,6,1,6
			C22.1,25.3,23.2,23.7,24.2,22.2L24.2,22.2z"/>
		<path class="st2" d="M40.9,21.2c-0.5,0.8-1.3,1.3-2.2,1.7c-0.1-2.5-0.5-4.7-0.5-4.7c-0.8,2.1-1.6,3.9-2.3,5.5
			c-2.7,0.3-5.3-0.1-5.3-0.1c1.4,1.7,2.6,2.8,3.5,3.5c-1.4,2.3-2.3,3.5-2.3,3.5c1.9-0.4,3.4-1.2,4.6-2c0.5,0.3,0.9,0.7,1.3,1.4
			c0,0,0.8-1.1,1-3.6C40.6,23.8,40.9,21.2,40.9,21.2L40.9,21.2z"/>
		<path class="st2" d="M40,14.3c-1.1-2.3-5.2-7.1-5.9-8c0.1,0.6,0,1.2-0.2,1.8c-2.9-1.4-5.5-1.6-5.5-1.6c1.7,1.1,3.1,2.4,4.4,3.8
			c-1.2,1.9-2.7,3.5-2.7,3.5c2-0.5,3.7-0.6,5-0.7c2,2.8,3.1,5.1,3.1,5.1c0-1.9-0.1-3.5-0.5-4.9C39.4,13.7,40,14.3,40,14.3L40,14.3z"
			/>
		<path class="st2" d="M28.5,6.5c-1.4-0.7-2.7-1.2-3.9-1.5c1.6-1.3,3-1.7,3-1.7c-3,0-9.3,1.3-10.9,1.3C17,5,17.4,5.5,17.7,6.2
			c-2.3,1.6-3.5,3.2-3.5,3.2c1.4-0.7,2.8-1.2,4.3-1.6c0.5,1.1,2.6,3.6,2.5,3.4c0.4-1.8,1-3.2,1.8-4.2C26,6.5,28.5,6.5,28.5,6.5z"/>
		<path class="st2" d="M11.1,12c0.9-0.8,1.9-1.7,3.2-2.7c0,0-1.2,0-2.4,0.3c0.8-2,1.7-3.1,1.7-3.1S8.3,10.3,7.4,17
			c0,0,0.4-1.2,1.9-3c0.6,1.3,1.3,2.2,1.3,2.2C10.6,14.6,10.8,13.2,11.1,12L11.1,12z"/>
		<path class="st2" d="M15.3,19c-1.8,0.1-3.2,0.2-4.3,0.4c-0.3-1.9-0.4-3.3-0.4-3.3c-0.9,1.4-1.5,2.7-1.8,3.9
			c-1.3,0.5-1.6,0.9-1.6,0.9c0.2,0.7,0.6,1.3,1.1,1.9C8.1,25.8,9,27.7,9,27.7c0.2-1,0.6-2,1.2-2.9c1.5,1.2,3.1,2,3.1,2
			c-0.7-1.3-1.3-2.7-1.6-4.1C13.3,20.5,15.3,19,15.3,19L15.3,19z"/>
		<path class="st2" d="M24.2,33.9c0,0-1.5-0.6-3.7-1.8c0.1-1.3,0.3-3,0.7-5.1c0,0-1.7,1.7-4,3c-1.3-0.9-2.7-2-4-3.2
			c0,0,0.6,2,1.9,4.2c-1.2,0.4-2.4,0.6-3.5,0.4c0,0,1.3,1.6,5.4,2.3c1.1,1.3,2.5,2.4,4.1,2.8c0,0-0.5-0.5-0.6-2.5
			C21.6,34.1,22.9,34,24.2,33.9z"/>
		<path class="st2" d="M31.6,33.7c0.3-1.6,0.1-3.1,0.1-3.1c-1,1.5-2,2.6-3,3.5c-2.5,0.1-4.5-0.2-4.5-0.2s1.1,1.1,2.4,1.8
			c-1.7,1.1-2.9,1.2-2.9,1.2c7.5,0.2,12-4.7,12-4.7C34.5,32.9,33,33.4,31.6,33.7L31.6,33.7z"/>
	</g>
</g>
<g id="Layer_3" class="st0">
</g>
<g id="Layer_4">
	<g id="SUPER">
		<g>
			<path class="st3" d="M10.8,44.2c0.2-0.5,0.4-1,0.6-1.4c0.2,0.1,0.3,0.1,0.5,0.2c0.5-1.2,1-2.4,1.4-3.6c-0.1-0.1-0.3-0.1-0.4-0.2
				c0.2-0.5,0.4-1,0.6-1.4c1.5,0.6,3.1,1.1,4.7,1.5c-0.2,0.8-0.3,1.5-0.5,2.3c-0.6-0.1-1.2-0.3-1.7-0.4c0.1-0.3,0.1-0.5,0.2-0.8
				c-0.4-0.1-0.9-0.3-1.3-0.4c-0.1,0.4-0.2,0.7-0.4,1.1c0.6,0.2,1.1,0.3,1.7,0.5c-0.1,0.5-0.3,1-0.4,1.5c-0.6-0.2-1.2-0.3-1.8-0.5
				c-0.1,0.4-0.2,0.7-0.4,1.1c0.5,0.2,1,0.3,1.5,0.4c0.1-0.3,0.1-0.5,0.2-0.8c0.6,0.2,1.2,0.3,1.9,0.5c-0.2,0.8-0.3,1.5-0.5,2.3
				C14.7,45.7,12.7,45,10.8,44.2z"/>
			<path class="st3" d="M24.2,41.4c-0.1,0-0.3,0-0.4,0c0,1.6,0,3.1-0.1,4.7c-0.3,0.3-0.7,0.5-1,0.8c-1.3-0.1-2.5-0.2-3.8-0.4
				c-0.3-0.3-0.6-0.6-0.9-0.9c0.3-1.5,0.6-3.1,0.8-4.6c-0.1,0-0.3-0.1-0.4-0.1c0.1-0.5,0.2-1,0.3-1.5c0.8,0.2,1.6,0.3,2.4,0.4
				c-0.1,0.5-0.1,1-0.2,1.6c-0.1,0-0.3,0-0.4,0c-0.2,1.3-0.3,2.6-0.5,3.9c0.6,0.1,1.1,0.1,1.7,0.2c0.1-1.3,0.2-2.6,0.3-3.9
				c-0.1,0-0.3,0-0.4,0c0-0.5,0.1-1,0.1-1.6c0.8,0.1,1.6,0.1,2.4,0.1C24.2,40.4,24.2,40.9,24.2,41.4z"/>
			<path class="st3" d="M31.2,46.2c-0.9,0.2-1.9,0.3-2.8,0.5c-0.1-0.5-0.1-1-0.2-1.5c0.1,0,0.3,0,0.4-0.1c-0.1-0.4-0.1-0.8-0.2-1.2
				C28,43.9,27.5,44,27,44c0,0.4,0.1,0.8,0.1,1.2c0.2,0,0.3,0,0.5,0c0.1,0.5,0.1,1,0.2,1.5c-1,0.1-2,0.2-3,0.2c0-0.5,0-1,0-1.6
				c0.2,0,0.3,0,0.5,0c0-1.3-0.1-2.6-0.1-3.9c-0.1,0-0.3,0-0.4,0c0-0.5,0-1,0-1.6c1.4,0,2.7-0.1,4.1-0.4c0.3,0.2,0.6,0.4,1,0.6
				c0.1,0.8,0.3,1.5,0.4,2.3c-0.1,0.2-0.2,0.3-0.4,0.5c0.2,0.1,0.3,0.2,0.5,0.3c0.1,0.5,0.2,1,0.3,1.5c0.1,0,0.2,0,0.3-0.1
				C31,45.2,31.1,45.7,31.2,46.2z M28.1,41.2c-0.4,0.1-0.9,0.1-1.3,0.1c0,0.4,0.1,0.8,0.1,1.2c0.5,0,0.9-0.1,1.4-0.2
				C28.2,41.9,28.2,41.6,28.1,41.2z"/>
			<path class="st3" d="M36.6,44.6c-1.2,0.5-2.5,0.9-3.8,1.2c-0.4-0.2-0.8-0.3-1.2-0.5c-0.4-1.8-0.8-3.6-1.2-5.3
				c0.2-0.3,0.4-0.6,0.6-1c1-0.3,2-0.6,3-1c0.4,0.1,0.7,0.3,1.1,0.4c0.7,1.7,1.4,3.4,2.1,5C37,43.9,36.8,44.3,36.6,44.6z M33.8,39.8
				c-0.5,0.2-1,0.3-1.5,0.5c0.4,1.3,0.7,2.5,1.1,3.8c0.6-0.2,1.2-0.4,1.7-0.6C34.7,42.3,34.3,41,33.8,39.8z"/>
		</g>
	</g>
	<g>
		<path class="st3" d="M20.7,1c-0.8,0-1.4,0.6-1.5,1.4c0,0.8,0.6,1.4,1.4,1.5c0,0,0,0,0,0h2.3l-0.4,2.9h-3.3c-2.4,0-4.3,1.9-4.3,4.3
			v4.3v1.4c0,6.3,4.6,11.9,7.1,14.4c-1.6,0-2.8,1.3-2.8,2.9c-0.8,0-1.4,0.6-1.5,1.4c0,0.8,0.6,1.4,1.4,1.5c0,0,0,0,0,0h11.5
			c0.8,0,1.4-0.6,1.5-1.4s-0.6-1.4-1.4-1.5c0,0,0,0,0,0c0-1.6-1.2-2.8-2.8-2.9c2.5-2.5,7.1-8,7.1-14.4v-1.4v-4.3
			c0-2.4-1.9-4.3-4.3-4.3h-3.3L27,3.9h2.3c0.8,0,1.4-0.6,1.5-1.4S30.1,1,29.3,1c0,0,0,0,0,0H20.7z M19.2,9.6H22l-0.4,2.9h-3.8v-1.4
			C17.8,10.3,18.4,9.6,19.2,9.6z M27.9,9.6h2.8c0.8,0,1.4,0.6,1.4,1.4v1.4h-3.8L27.9,9.6z"/>
	</g>
</g>
</svg>
