<?xml version="1.0" encoding="utf-8"?>
<!-- Generator: Adobe Illustrator 25.1.0, SVG Export Plug-In . SVG Version: 6.00 Build 0)  -->
<svg class="uhover uselected" version="1.1" xmlns="http://www.w3.org/2000/svg" width="48px" height="48px" xmlns:xlink="http://www.w3.org/1999/xlink" x="0px" y="0px" viewBox="12 0 40 48" style="enable-background:new 0 0 48 48;" xml:space="preserve">
<style type="text/css">
                        .st0{display:none;}
                        .st1{display:inline;}
                        .st2{fill-rule:evenodd;clip-rule:evenodd;fill:#FFFFFF;}
                        .st3{fill:#FFFFFF;}
                    </style>
<g id="Layer_2" class="st0">
<g class="st1">
<path class="st2" d="M24.2,22.2c3.7,1,6.4,1.5,6.4,1.5c-1.6-1.6-3-3.2-4.2-4.7c2.1-3,3.8-5.1,3.8-5.1c-2.3,0.5-4.4,1.1-6.3,1.7
                                C22,13,21,11.2,21,11.2c-0.5,2-0.8,3.9-0.9,5.8c-3,1.2-4.9,2.1-4.9,2.1c1.6,0.7,3.3,1.4,5,1.9c0.3,3.5,1,6,1,6
                                C22.1,25.3,23.2,23.7,24.2,22.2L24.2,22.2z"></path>
<path class="st2" d="M40.9,21.2c-0.5,0.8-1.3,1.3-2.2,1.7c-0.1-2.5-0.5-4.7-0.5-4.7c-0.8,2.1-1.6,3.9-2.3,5.5
                                c-2.7,0.3-5.3-0.1-5.3-0.1c1.4,1.7,2.6,2.8,3.5,3.5c-1.4,2.3-2.3,3.5-2.3,3.5c1.9-0.4,3.4-1.2,4.6-2c0.5,0.3,0.9,0.7,1.3,1.4
                                c0,0,0.8-1.1,1-3.6C40.6,23.8,40.9,21.2,40.9,21.2L40.9,21.2z"></path>
<path class="st2" d="M40,14.3c-1.1-2.3-5.2-7.1-5.9-8c0.1,0.6,0,1.2-0.2,1.8c-2.9-1.4-5.5-1.6-5.5-1.6c1.7,1.1,3.1,2.4,4.4,3.8
                                c-1.2,1.9-2.7,3.5-2.7,3.5c2-0.5,3.7-0.6,5-0.7c2,2.8,3.1,5.1,3.1,5.1c0-1.9-0.1-3.5-0.5-4.9C39.4,13.7,40,14.3,40,14.3L40,14.3z"></path>
<path class="st2" d="M28.5,6.5c-1.4-0.7-2.7-1.2-3.9-1.5c1.6-1.3,3-1.7,3-1.7c-3,0-9.3,1.3-10.9,1.3C17,5,17.4,5.5,17.7,6.2
                                c-2.3,1.6-3.5,3.2-3.5,3.2c1.4-0.7,2.8-1.2,4.3-1.6c0.5,1.1,2.6,3.6,2.5,3.4c0.4-1.8,1-3.2,1.8-4.2C26,6.5,28.5,6.5,28.5,6.5z"></path>
<path class="st2" d="M11.1,12c0.9-0.8,1.9-1.7,3.2-2.7c0,0-1.2,0-2.4,0.3c0.8-2,1.7-3.1,1.7-3.1S8.3,10.3,7.4,17
                                c0,0,0.4-1.2,1.9-3c0.6,1.3,1.3,2.2,1.3,2.2C10.6,14.6,10.8,13.2,11.1,12L11.1,12z"></path>
<path class="st2" d="M15.3,19c-1.8,0.1-3.2,0.2-4.3,0.4c-0.3-1.9-0.4-3.3-0.4-3.3c-0.9,1.4-1.5,2.7-1.8,3.9
                                c-1.3,0.5-1.6,0.9-1.6,0.9c0.2,0.7,0.6,1.3,1.1,1.9C8.1,25.8,9,27.7,9,27.7c0.2-1,0.6-2,1.2-2.9c1.5,1.2,3.1,2,3.1,2
                                c-0.7-1.3-1.3-2.7-1.6-4.1C13.3,20.5,15.3,19,15.3,19L15.3,19z"></path>
<path class="st2" d="M24.2,33.9c0,0-1.5-0.6-3.7-1.8c0.1-1.3,0.3-3,0.7-5.1c0,0-1.7,1.7-4,3c-1.3-0.9-2.7-2-4-3.2
                                c0,0,0.6,2,1.9,4.2c-1.2,0.4-2.4,0.6-3.5,0.4c0,0,1.3,1.6,5.4,2.3c1.1,1.3,2.5,2.4,4.1,2.8c0,0-0.5-0.5-0.6-2.5
                                C21.6,34.1,22.9,34,24.2,33.9z"></path>
<path class="st2" d="M31.6,33.7c0.3-1.6,0.1-3.1,0.1-3.1c-1,1.5-2,2.6-3,3.5c-2.5,0.1-4.5-0.2-4.5-0.2s1.1,1.1,2.4,1.8
                                c-1.7,1.1-2.9,1.2-2.9,1.2c7.5,0.2,12-4.7,12-4.7C34.5,32.9,33,33.4,31.6,33.7L31.6,33.7z"></path>
</g>
</g>
<g id="Layer_3" class="st0">
</g>
<g id="Layer_4">
<g>
<g id="SUPER">
<g>
<path class="st3" d="M21.7,45.9c-1.4-0.3-2.7-0.8-4-1.3c-0.2-0.4-0.5-0.7-0.7-1.1c0.7-1.7,1.4-3.4,2.1-5
                                        c0.4-0.1,0.7-0.3,1.1-0.4c1.1,0.4,2.1,0.7,3.2,1c0.2,0.3,0.4,0.6,0.6,0.9c-0.1,0.5-0.2,1-0.3,1.5c-0.6-0.1-1.2-0.3-1.7-0.4
                                        c0.1-0.3,0.1-0.5,0.2-0.8c-0.6-0.2-1.2-0.3-1.7-0.5c-0.4,1.2-0.9,2.5-1.3,3.7c0.7,0.2,1.3,0.4,2,0.6c0.1-0.3,0.1-0.5,0.2-0.8
                                        c0.6,0.2,1.2,0.3,1.9,0.5c-0.1,0.5-0.2,1-0.3,1.5C22.5,45.5,22.1,45.7,21.7,45.9z"></path>
<path class="st3" d="M28.3,46.8c-1.3-0.1-2.6-0.2-3.9-0.4c-0.3-0.3-0.6-0.6-0.8-0.9c0.4-1.8,0.7-3.6,1.1-5.4
                                        c0.3-0.2,0.6-0.4,0.9-0.6c1,0.2,2.1,0.3,3.1,0.3c0.3,0.3,0.5,0.5,0.8,0.8c0,1.8-0.1,3.6-0.1,5.5C29,46.3,28.6,46.6,28.3,46.8z
                                        M27.7,41.3c-0.5,0-1.1-0.1-1.6-0.2c-0.2,1.3-0.4,2.6-0.5,3.9c0.6,0.1,1.2,0.1,1.8,0.2C27.5,43.9,27.6,42.6,27.7,41.3z"></path>
<path class="st3" d="M35.4,42.9c-0.3,0.3-0.5,0.6-0.8,0.9c-0.8,0.1-1.6,0.2-2.3,0.2c0,0.4,0.1,0.8,0.1,1.2c0.2,0,0.3,0,0.5,0
                                        c0,0.5,0.1,1,0.1,1.6c-1,0.1-2,0.1-3,0.1c0-0.5,0-1,0-1.6c0.2,0,0.3,0,0.5,0c0-1.3,0-2.6,0-3.9c-0.1,0-0.3,0-0.4,0
                                        c0-0.5,0-1,0-1.6c1.4,0,2.7-0.1,4.1-0.3c0.3,0.2,0.6,0.4,0.9,0.6C35.1,41.1,35.2,42,35.4,42.9z M33.3,41.2
                                        c-0.4,0-0.9,0.1-1.3,0.1c0,0.4,0.1,0.8,0.1,1.2c0.4,0,0.9-0.1,1.3-0.1C33.4,42,33.4,41.6,33.3,41.2z"></path>
<path class="st3" d="M43.3,44.2c-1,0.4-1.9,0.7-2.9,1.1c-0.2-0.5-0.3-1-0.5-1.5c0.2,0,0.3-0.1,0.5-0.1c-0.1-0.1-0.1-0.2-0.2-0.3
                                        c-0.5,0.2-1.1,0.3-1.7,0.5c0,0.1,0,0.3,0,0.4c0.2,0,0.3-0.1,0.5-0.1c0.1,0.5,0.3,1,0.4,1.5c-1,0.3-2,0.5-3,0.7
                                        c-0.1-0.5-0.2-1-0.3-1.5c0.2,0,0.3-0.1,0.5-0.1c0.1-1.3,0.1-2.7,0.1-4c-0.2,0-0.3,0.1-0.5,0.1c-0.1-0.5-0.2-1-0.3-1.5
                                        c1.3-0.3,2.6-0.7,3.9-1.2c0.2,0.5,0.4,1,0.6,1.5c-0.2,0.1-0.3,0.1-0.5,0.2c0.7,1.1,1.5,2.2,2.3,3.3c0.2-0.1,0.3-0.1,0.5-0.2
                                        C42.9,43.3,43.1,43.8,43.3,44.2z M39.3,41.9c-0.3-0.5-0.6-1-0.9-1.5c0,0.6,0.1,1.2,0.1,1.7C38.8,42.1,39.1,42,39.3,41.9z"></path>
</g>
</g>
<g>
<path class="st3" d="M39.2,10.9c0-5.2-4.2-9.4-9.4-9.4s-9.4,4.2-9.4,9.4c0,1.2,0.4,2.6,0.4,2.8l0,0c0.3,1.2,0.8,2.3,1.4,3.5
                                    c1.2,2.6,2.5,5.6,2.5,10.3c0,4.5-1.6,7.8-2,8.7c-0.2,0.3-0.2,0.7,0,1c0.2,0.3,0.5,0.5,0.9,0.5H36c0.4,0,0.7-0.2,0.9-0.5
                                    c0.2-0.3,0.2-0.7,0-1c-0.5-0.9-2-4.2-2-8.7c0-4.7,1.4-7.7,2.5-10.3c0.5-1.2,1-2.3,1.4-3.5l0,0C38.8,13.5,39.2,12.1,39.2,10.9
                                    L39.2,10.9z M29.8,3.7c4,0,7.2,3.2,7.2,7.2c0,0.6-0.1,1.3-0.2,1.8c-0.6-0.5-1.3-0.8-2.1-0.8c-0.8,0-1.6,0.3-2.3,0.9
                                    c-1.3-2.7-3-5.3-4.8-5.9c-0.8-0.2-1.5-0.1-2.2,0.3c-0.8,0.6-1.6,1.9-0.7,4.4c0,0,0,0,0,0c0,0,0,0,0,0c0.3,0.8-0.2,1.6-0.7,1.8
                                    c-0.6,0.2-1.2-0.4-1.4-1.1c-0.1-0.4-0.2-0.9-0.2-1.4C22.6,6.9,25.9,3.7,29.8,3.7z M30.7,20.3c-0.1-2.9-0.9-4.2-2-5.9l-0.1-0.2
                                    C26,10,26.5,9.1,26.7,9c0.1-0.1,0.2-0.1,0.3,0c1,0.3,2.7,2.7,4.6,7.4c0,0,0,0,0,0c0.2,0.4,0.4,0.8,0.7,1.1
                                    c0.6,0.6,1.3,0.9,2.1,0.9c-0.9,2.3-1.8,5.2-1.8,9c0,1.5,0.2,2.9,0.4,4.1h-6C29.6,26.8,30.8,23.8,30.7,20.3L30.7,20.3z M35.5,16
                                    c-0.2,0.2-0.5,0.3-0.8,0.3c-0.3,0-0.6-0.1-0.8-0.3c-0.2-0.2-0.3-0.5-0.3-0.8c0-0.3,0.1-0.6,0.3-0.8c0.2-0.2,0.5-0.3,0.8-0.3
                                    s0.6,0.1,0.8,0.3c0.2,0.2,0.3,0.5,0.3,0.8C35.8,15.5,35.7,15.8,35.5,16z M24.2,16.3c-0.1-0.2-0.2-0.5-0.3-0.7c0,0,0,0,0.1,0
                                    c0.3,0,0.6,0,0.8-0.1c0.6-0.2,1.1-0.5,1.4-1c0.2,0.3,0.3,0.6,0.5,0.9l0.1,0.2c1,1.6,1.6,2.5,1.7,4.9c0.1,2-0.4,3.9-1.6,6.6
                                    C26.9,22.1,25.4,18.9,24.2,16.3z M25.4,35.6c0.2-0.6,0.5-1.2,0.7-1.9h7.5c0.2,0.7,0.5,1.4,0.7,1.9C34.3,35.6,25.4,35.6,25.4,35.6
                                    z"></path>
</g>
</g>
</g>
</svg>
